<?xml version="1.0" encoding="UTF-8"?>
<svg width="168px" height="197px" viewBox="0 0 168 197" version="1.1" xmlns="http://www.w3.org/2000/svg" xmlns:xlink="http://www.w3.org/1999/xlink">
    <!-- Generator: Sketch 59.1 (86144) - https://sketch.com -->
    <title>C</title>
    <desc>Created with Sketch.</desc>
    <g id="Page-1" stroke="none" stroke-width="1" fill="none" fill-rule="evenodd">
        <g id="Desktop-HD" transform="translate(-962.000000, -249.000000)" fill="#000000" fill-rule="nonzero">
            <path d="M1089.42717,249.003496 C1092.77683,249.003496 1097.50824,251.471303 1103.62138,256.406918 C1109.73452,261.342533 1114.13096,263.81034 1116.81069,263.81034 C1118.99797,264.133673 1121.19573,263.294458 1122.61399,261.59435 C1123.81986,259.881994 1125.00062,259.076179 1126.13113,259.076179 C1128.64339,259.076179 1130,260.284901 1130,262.727527 C1129.87713,263.892631 1129.38392,264.987302 1128.59314,265.850059 C1115.71368,282.302108 1105.85728,290.528133 1099.02396,290.528133 C1092.48434,290.631302 1086.14481,288.267476 1081.26236,283.905343 C1076.23786,279.473363 1071.7158,277.282554 1067.64596,277.282554 C1063.58642,277.239193 1059.64303,278.64003 1056.51669,281.236083 C1051.05096,285.259072 1047.74913,291.590078 1047.57308,298.384826 C1047.57308,308.004239 1054.27242,319.268856 1067.67108,332.178678 C1084.01746,348.026367 1092.19064,360.323435 1092.19064,369.069881 C1092.19064,380.670255 1079.74663,393.966197 1054.85861,408.957707 C1053.77277,409.738695 1052.52933,410.271622 1051.21585,410.518973 C1050.25443,410.655149 1049.28506,410.330447 1048.59849,409.642249 C1047.91191,408.95405 1047.58796,407.9824 1047.72382,407.018715 C1047.72382,405.532995 1048.97995,404.022093 1051.46707,402.460827 C1057.69745,398.566055 1060.81264,393.67241 1060.81264,387.77989 C1060.81264,378.949505 1053.78672,367.752038 1039.73486,354.187492 C1025.68302,340.622945 1018.65709,328.644845 1018.65709,318.253194 C1018.65709,307.87833 1023.92444,298.39322 1034.45914,289.797863 L1051.19073,276.174559 C1052.03298,275.604256 1052.56232,274.673402 1052.62271,273.656389 C1052.58632,272.70006 1052.31909,271.766846 1051.84391,270.936764 C1048.0745,264.252456 1040.96279,260.16663 1033.30351,260.284901 C1019.90484,260.284901 1009.70511,267.167902 1002.7043,280.933902 C995.797668,293.992622 992.151321,308.534614 992.077489,323.314717 C991.596969,349.251223 999.993189,374.570345 1015.86849,395.057404 C1031.71241,415.454588 1053.08329,425.65318 1079.98111,425.65318 C1094.50191,425.65318 1106.68632,422.832829 1116.53434,417.192126 C1117.38675,416.629579 1118.35922,416.275904 1119.37319,416.159676 C1121.70958,416.159676 1122.89033,417.519488 1122.89033,420.188749 C1122.89033,421.321926 1121.9608,422.455103 1120.15198,423.563098 C1096.15162,438.521032 1074.28667,446 1054.55714,446 C1025.71651,446 1003.07277,435.625136 986.625907,414.875409 C970.445387,394.786272 961.741224,369.68058 962.005861,343.862991 C962.005861,317.271107 968.462339,294.809023 981.375302,276.47674 C994.288265,258.144456 1009.65486,248.986708 1027.47509,249.003496 C1041.12498,249.003496 1051.17398,254.719743 1057.62208,266.152239 C1058.32551,267.360961 1059.07919,267.965322 1059.88311,267.965322 C1060.80095,267.969361 1061.6907,267.648294 1062.39536,267.058781 L1080.81015,251.949755 C1083.24362,249.975531 1086.29733,248.931432 1089.42717,249.003496 Z" id="C"></path>
        </g>
    </g>
</svg>