<?xml version="1.0" encoding="UTF-8"?>
<svg width="198px" height="197px" viewBox="0 0 198 197" version="1.1" xmlns="http://www.w3.org/2000/svg" xmlns:xlink="http://www.w3.org/1999/xlink">
    <!-- Generator: Sketch 59.1 (86144) - https://sketch.com -->
    <title>D</title>
    <desc>Created with Sketch.</desc>
    <g id="Page-1" stroke="none" stroke-width="1" fill="none" fill-rule="evenodd">
        <g id="Desktop-HD" transform="translate(-923.000000, -578.000000)" fill="#000000" fill-rule="nonzero">
            <path d="M1034.36691,775 C1055,775 1075.2446,764.907431 1095.10072,744.722296 C1112.36691,727.222735 1121,704.871812 1121,677.669525 C1121,635.913149 1099.54676,605.505497 1056.64029,586.44657 C1043.94964,580.815523 1029.23022,578 1012.48202,578 C987.187051,578 965.949641,585.406992 948.769785,600.220976 C931.589929,615.03496 923,632.881047 923,653.759235 C923,669.093008 927.553958,681.697889 936.661871,691.573878 C945.769785,701.449868 957.834532,706.387863 972.856116,706.387863 C978.553957,706.387863 983.690649,705.608179 988.266187,704.048813 C991.115109,703.095866 992.539569,701.753078 992.539569,700.020448 C992.539569,697.76803 991.417266,696.641821 989.172662,696.641821 C988.223022,696.641821 987.057554,696.858399 985.676259,697.291557 C981.964029,698.504397 977.690647,699.110818 972.856116,699.110818 C961.978417,699.110818 952.67626,695.234059 944.949641,687.480541 C937.223022,679.727023 933.359712,670.522427 933.359712,659.866754 C933.359712,644.359718 939.856116,632.187995 952.848922,623.351583 C965.841727,614.515172 981.230216,610.096966 999.014389,610.096966 C1014.98561,610.096966 1029.48921,612.99912 1042.52518,618.80343 C1083.27338,636.909411 1103.64748,665.497801 1103.64748,704.568601 C1103.64748,718.689534 1099.07194,730.384784 1089.92086,739.654354 C1082.58273,747.104661 1072.54676,750.829815 1059.81295,750.829815 C1047.07914,750.829815 1031.04317,744.462401 1011.70504,731.727572 C1004.6259,727.049472 996.381295,724.710422 986.971224,724.710422 C972.122302,724.710422 956.453238,732.550571 939.96403,748.230871 C938.323741,749.790237 937.503597,751.17634 937.503597,752.389182 C937.503597,754.554969 938.582734,755.637863 940.741008,755.637863 C942.208634,755.637863 943.67626,754.901496 945.143886,753.42876 C948.510791,750.223395 953.129497,748.620713 959,748.620713 C967.978417,748.620713 979.374101,753.01726 993.187051,761.810356 C1007,770.603453 1020.72662,775 1034.36691,775 Z M1014.87083,726 C1015.73195,726 1016.72222,725.739336 1017.84167,725.218009 C1036.61389,715.399684 1046,704.234597 1046,691.722749 C1046,681.209321 1039.92917,670.239731 1027.7875,658.813981 C1015.64583,647.388231 1009.575,638.503949 1009.575,632.161137 C1009.575,628.42496 1011.55556,625.470774 1015.51667,623.298578 C1017.49722,622.255924 1018.4875,621.039494 1018.4875,619.649289 C1018.4875,617.21643 1017.36806,616 1015.12917,616 C1014.26806,616 1013.27778,616.260663 1012.15833,616.78199 C993.386112,626.600316 984,637.765403 984,650.277251 C984,660.530016 990.070834,671.499605 1002.2125,683.186019 C1014.35417,694.872433 1020.425,703.756714 1020.425,709.838863 C1020.425,713.57504 1018.44445,716.529226 1014.48333,718.701422 C1012.50278,719.744076 1011.5125,720.960505 1011.5125,722.350711 C1011.5125,724.78357 1012.63195,726 1014.87083,726 Z" id="D"></path>
        </g>
    </g>
</svg>