<?xml version="1.0" encoding="UTF-8"?>
<svg width="170px" height="197px" viewBox="0 0 170 197" version="1.1" xmlns="http://www.w3.org/2000/svg" xmlns:xlink="http://www.w3.org/1999/xlink">
    <!-- Generator: Sketch 59.1 (86144) - https://sketch.com -->
    <title>E</title>
    <desc>Created with Sketch.</desc>
    <g id="Page-1" stroke="none" stroke-width="1" fill="none" fill-rule="evenodd">
        <g id="Desktop-HD" transform="translate(-1140.000000, -578.000000)" fill="#000000" fill-rule="nonzero">
            <path d="M1232.79817,775 C1252.64016,775 1274.56167,767.549692 1298.56269,752.649076 C1300.38226,751.522867 1301.29205,750.396657 1301.29205,749.270449 C1301.29205,746.584873 1300.12232,745.242084 1297.78287,745.242084 C1297.0897,745.242084 1296.1366,745.58861 1294.92355,746.281662 C1285.04587,751.912709 1272.82875,754.728231 1258.27217,754.728231 C1231.32518,754.728231 1209.90189,744.527375 1194.00229,724.12566 C1178.1027,703.723944 1170.15291,679.791996 1170.15291,652.329815 C1170.15291,637.862357 1173.7054,623.741425 1180.8104,609.967018 C1187.91539,596.192612 1198.13965,589.305409 1211.48318,589.305409 C1218.93476,589.305409 1225.12997,592.8573 1230.06881,599.961082 C1230.67533,600.827397 1230.97859,601.693711 1230.97859,602.560026 C1230.97859,603.426341 1230.45872,604.292656 1229.41896,605.158971 L1229.41896,605.158971 L1212.6529,618.80343 C1202.08206,627.379947 1196.79664,636.866095 1196.79664,647.261873 C1196.79664,657.657652 1203.83665,669.634455 1217.91667,683.192282 C1231.99669,696.75011 1239.0367,707.947229 1239.0367,716.783641 C1239.0367,722.674582 1235.91743,727.569261 1229.6789,731.467678 C1227.16616,733.027045 1225.90979,734.543095 1225.90979,736.01583 C1225.90979,738.354881 1227.07951,739.524405 1229.41896,739.524405 C1230.11213,739.524405 1231.32518,739.004617 1233.0581,737.965039 C1258.01223,722.977792 1270.4893,709.679859 1270.4893,698.07124 C1270.4893,691.747142 1266.07034,683.387203 1257.23242,672.991425 C1256.36595,671.865215 1255.93272,671.042216 1255.93272,670.522427 C1255.93272,668.096746 1256.92915,666.883905 1258.92202,666.883905 C1260.22171,666.883905 1262.34455,668.313324 1265.29052,671.172163 C1271.00917,676.716579 1276.20795,679.488786 1280.88685,679.488786 C1291.19776,679.488786 1300.55556,671.302111 1308.96024,654.92876 C1309.65342,653.629287 1310,652.676341 1310,652.069921 C1310,649.557608 1308.78695,648.301451 1306.36086,648.301451 C1305.14781,648.301451 1303.93476,649.297713 1302.72171,651.290237 C1302.20184,652.069921 1301.46534,652.459762 1300.51223,652.459762 C1297.99949,652.459762 1294.31702,650.120712 1289.46483,645.442612 C1285.4791,641.544195 1281.23344,639.594987 1276.72783,639.594987 C1268.66972,639.594987 1260.30836,647.045295 1251.64373,661.94591 C1250.95056,663.07212 1250.23573,663.635224 1249.49924,663.635224 C1248.76274,663.635224 1248.00459,663.245383 1247.22477,662.465699 C1232.92813,648.171504 1225.77982,636.476253 1225.77982,627.379947 C1225.77982,620.969217 1228.76911,615.251539 1234.74771,610.226913 C1238.12691,607.454705 1241.76605,606.068602 1245.66514,606.068602 C1249.56422,606.068602 1254.43807,608.494283 1260.2867,613.345646 C1266.13532,618.19701 1271.98395,620.622691 1277.83257,620.622691 C1283.68119,620.622691 1293.40724,611.959543 1307.0107,594.633245 C1307.96381,593.420405 1308.44037,592.380827 1308.44037,591.514512 C1308.44037,589.08883 1307.14067,587.875989 1304.54129,587.875989 C1303.41488,587.875989 1302.28848,588.698989 1301.16208,590.344987 C1300.03568,591.990985 1298.08614,592.813984 1295.31346,592.813984 C1292.54077,592.813984 1288.10015,590.344987 1281.99159,585.406992 C1275.88303,580.468997 1271.13914,578 1267.75994,578 C1264.38073,578 1261.47808,578.996262 1259.05199,580.988786 L1259.05199,580.988786 L1240.59633,596.062665 C1239.81651,596.669085 1239.01504,596.972295 1238.1919,596.972295 C1237.36876,596.972295 1236.6106,596.365875 1235.91743,595.153034 C1229.41896,583.717678 1219.32467,578 1205.63456,578 C1187.78542,578 1172.38405,587.16128 1159.43043,605.483839 C1146.47681,623.806398 1140,646.265611 1140,672.861477 C1140,699.457344 1148.2314,723.151055 1164.69419,743.942612 C1181.15698,764.647538 1203.85831,775 1232.79817,775 Z" id="E"></path>
        </g>
    </g>
</svg>