<?xml version="1.0" encoding="UTF-8"?>
<svg width="188px" height="197px" viewBox="0 0 188 197" version="1.1" xmlns="http://www.w3.org/2000/svg" xmlns:xlink="http://www.w3.org/1999/xlink">
    <!-- Generator: Sketch 59.1 (86144) - https://sketch.com -->
    <title>G</title>
    <desc>Created with Sketch.</desc>
    <g id="Page-1" stroke="none" stroke-width="1" fill="none" fill-rule="evenodd">
        <g id="Desktop-HD" transform="translate(-1652.000000, -578.000000)" fill="#000000" fill-rule="nonzero">
            <path d="M1738.96775,775 C1756.51613,775 1771.74194,770.062006 1784.64517,760.186015 C1785.33333,759.666227 1785.97851,759.406332 1786.58065,759.406332 C1787.61291,759.406332 1788.51614,760.142699 1789.29032,761.615435 C1792.73119,768.372691 1798.96774,771.75132 1808,771.75132 C1813.50538,771.75132 1818.58065,769.368953 1823.2258,764.604222 L1823.2258,764.604222 L1838.45162,749.010554 C1839.48388,747.970976 1840,746.888082 1840,745.761872 C1840,743.509454 1838.88173,742.383246 1836.64517,742.383246 C1835.35485,742.383246 1834.10754,742.989666 1832.90323,744.202506 C1829.29033,747.841028 1826.27957,749.66029 1823.87098,749.66029 C1816.98925,749.66029 1813.5484,743.076296 1813.5484,729.908311 L1813.5484,729.908311 L1813.5484,690.664248 C1813.5484,680.528364 1819.13979,670.479112 1830.32259,660.516491 C1831.78495,659.217018 1832.51613,657.87423 1832.51613,656.488127 C1832.51613,654.408971 1831.48387,653.369393 1829.41935,653.369393 C1828.21506,653.369393 1827.01076,653.845866 1825.80645,654.798813 C1810.15055,667.187115 1794.79571,675.330475 1779.74194,679.228892 C1777.41936,679.835312 1776.25806,681.28639 1776.25806,683.582124 C1776.25806,685.877858 1777.61291,687.025725 1780.32258,687.025725 C1783.03226,687.025725 1784.3871,688.585092 1784.3871,691.703826 L1784.3871,691.703826 L1784.3871,732.247362 C1784.3871,737.358619 1784.60215,741.776825 1785.03226,745.501979 C1785.11828,746.021767 1785.16129,746.498241 1785.16129,746.931398 C1785.16129,749.443712 1784.17204,751.392919 1782.19355,752.779024 C1773.76344,759.016491 1763.01076,762.135224 1749.93549,762.135224 C1723.957,762.135224 1704.34409,742.989666 1691.09677,704.698549 C1687.48387,694.216139 1685.67742,681.004837 1685.67742,665.064644 C1685.67742,636.996042 1689.78494,617.0708 1698,605.288918 C1706.21505,593.507036 1716.7742,587.616095 1729.67742,587.616095 C1738.62366,587.616095 1745.2043,591.471196 1749.41935,599.181398 C1749.84947,599.961082 1750.06451,600.697449 1750.06451,601.390501 C1750.06451,602.430079 1749.37635,603.33971 1748,604.119393 L1748,604.119393 L1746.06452,605.158971 C1718.36559,620.059587 1704.51613,636.129727 1704.51613,653.369393 C1704.51613,664.28496 1710.17204,675.893579 1721.48387,688.195251 C1732.79571,700.496922 1738.45161,711.065963 1738.45161,719.902375 C1738.45161,727.179419 1734.49463,732.810466 1726.58065,736.795515 C1724.17205,738.008355 1722.96775,739.351143 1722.96775,740.823878 C1722.96775,743.162929 1724.04302,744.332453 1726.19354,744.332453 C1727.39785,744.332453 1728.73119,743.942612 1730.19355,743.162929 C1754.10752,730.514732 1766.06452,716.567062 1766.06452,701.319921 C1766.06452,690.144459 1760.45162,678.492524 1749.22582,666.364116 C1738,654.235708 1732.38709,643.601693 1732.38709,634.462071 C1732.38709,625.322449 1738.32259,617.547274 1750.19355,611.136544 C1753.54839,609.317282 1756.77419,608.407652 1759.87098,608.407652 C1765.46237,608.407652 1770.62365,611.418096 1775.35484,617.438984 C1780.08603,623.459872 1785.72044,626.470316 1792.25806,626.470316 C1801.37635,626.470316 1812.25806,620.795954 1824.90323,609.447229 C1826.45161,608.061126 1827.22581,606.718338 1827.22581,605.418865 C1827.22581,603.253078 1826.15054,602.170185 1824,602.170185 C1822.79571,602.170185 1821.5484,602.733289 1820.25806,603.859499 C1818.96775,604.985708 1817.59141,605.548813 1816.12903,605.548813 C1812.51613,605.548813 1808,602.105211 1802.58064,595.218008 C1797.16129,588.330805 1791.91399,584.887203 1786.83871,584.887203 C1784.94624,584.887203 1783.01075,585.406992 1781.03226,586.44657 L1781.03226,586.44657 L1760.64516,597.362137 C1759.957,597.708663 1759.35484,597.881926 1758.83871,597.881926 C1757.63442,597.881926 1756.64517,597.188874 1755.87097,595.802771 C1749.33333,583.934257 1739.22581,578 1725.54838,578 C1705.67742,578 1688.45161,587.356201 1673.87097,606.068602 C1659.29033,624.781003 1652,648.864556 1652,678.319261 C1652,691.747142 1653.63441,703.225813 1656.90323,712.755277 C1671.09678,754.251759 1698.45161,775 1738.96775,775 Z" id="G"></path>
        </g>
    </g>
</svg>