<?xml version="1.0" encoding="UTF-8"?>
<svg width="167px" height="229px" viewBox="0 0 167 229" version="1.1" xmlns="http://www.w3.org/2000/svg" xmlns:xlink="http://www.w3.org/1999/xlink">
    <!-- Generator: Sketch 59.1 (86144) - https://sketch.com -->
    <title>I</title>
    <desc>Created with Sketch.</desc>
    <g id="Page-1" stroke="none" stroke-width="1" fill="none" fill-rule="evenodd">
        <g id="Desktop-HD" transform="translate(-1469.000000, -577.000000)" fill="#000000" fill-rule="nonzero">
            <path d="M1556.28064,806 C1576.48751,806 1593.50039,799.901984 1607.31928,787.705949 C1626.43976,770.839094 1636,753.453258 1636,735.548443 C1636,721.708971 1630.54632,707.955996 1619.63895,694.289519 C1608.73159,680.623041 1603.27791,667.216053 1603.27791,654.068555 C1603.27791,640.921058 1613.01197,628.335789 1632.48009,616.312748 C1634.21832,615.274788 1635.08743,614.150331 1635.08743,612.939377 C1635.08743,610.517469 1633.95759,609.306516 1631.69789,609.306516 C1630.48114,609.306516 1629.35129,609.652502 1628.30835,610.344476 C1626.48322,611.55543 1624.18007,612.160907 1621.39891,612.160907 C1613.83763,612.160907 1603.71246,606.300755 1591.02342,594.580453 C1578.33437,582.860151 1562.77726,577 1544.35207,577 C1525.92688,577 1509.93521,583.16289 1496.37705,595.488669 C1482.81889,607.814448 1476.03981,622.518886 1476.03981,639.601983 C1476.03981,656.68508 1480.73302,670.30831 1490.11944,680.471672 C1499.50585,690.635033 1511.17369,695.716714 1525.12295,695.716714 C1539.07221,695.716714 1550.0013,692.256846 1557.91023,685.337111 C1559.38772,684.03966 1560.12646,682.828707 1560.12646,681.704249 C1560.12646,679.368839 1558.90971,678.201133 1556.47619,678.201133 C1555.34634,678.201133 1554.04267,678.849859 1552.56518,680.147309 C1547.17668,684.904627 1539.28949,687.283286 1528.90359,687.283286 C1518.51769,687.283286 1509.37028,683.131445 1501.46136,674.827762 C1493.55243,666.524079 1489.59797,656.274221 1489.59797,644.078187 C1489.59797,631.882153 1493.90008,622.043154 1502.50429,614.56119 C1511.10851,607.079226 1520.92948,603.338244 1531.96721,603.338244 C1543.00494,603.338244 1553.2822,607.792823 1562.79899,616.701983 C1572.31577,625.611143 1582.33229,630.065723 1592.84856,630.065723 C1596.2381,630.065723 1597.93287,630.606327 1597.93287,631.687535 C1597.93287,632.768744 1597.10721,634.04457 1595.45589,635.515014 C1581.11553,648.316525 1573.94536,661.182909 1573.94536,674.114165 C1573.94536,687.04542 1578.1171,698.830595 1586.46058,709.469689 C1603.23445,730.834372 1611.62139,748.17696 1611.62139,761.497451 C1611.62139,769.628139 1608.84023,776.31001 1603.27791,781.543061 C1597.71559,786.776109 1588.85064,789.392635 1576.68306,789.392635 C1564.51548,789.392635 1551.89162,782.408026 1538.81147,768.438811 C1525.73133,754.469594 1514.43286,747.484986 1504.91608,747.484986 C1495.3993,747.484986 1484.12256,753.15052 1471.08587,764.481586 C1469.69529,765.69254 1469,766.773749 1469,767.725213 C1469,770.233618 1470.26021,771.48782 1472.78064,771.48782 C1473.73666,771.48782 1474.90997,770.882342 1476.30055,769.671388 C1477.69113,768.460435 1479.34244,767.854958 1481.25449,767.854958 C1486.81681,767.854958 1495.66003,774.212464 1507.78415,786.927479 C1519.90827,799.642493 1536.07377,806 1556.28064,806 Z" id="I"></path>
        </g>
    </g>
</svg>