<?xml version="1.0" encoding="UTF-8"?>
<svg width="278px" height="194px" viewBox="0 0 278 194" version="1.1" xmlns="http://www.w3.org/2000/svg" xmlns:xlink="http://www.w3.org/1999/xlink">
    <!-- Generator: Sketch 59.1 (86144) - https://sketch.com -->
    <title>M</title>
    <desc>Created with Sketch.</desc>
    <g id="Page-1" stroke="none" stroke-width="1" fill="none" fill-rule="evenodd">
        <g id="Desktop-HD" transform="translate(-578.000000, -578.000000)" fill="#000000" fill-rule="nonzero">
            <path d="M815.896359,772 C817.886398,772 819.87644,771.04583 821.866479,769.13749 L821.866479,769.13749 L846.525676,745.586853 C847.563958,744.632684 848.0831,743.591772 848.0831,742.464117 C848.0831,739.948579 846.915032,738.690812 844.578898,738.690812 C843.713663,738.690812 842.697011,739.254639 841.528945,740.382293 C840.360878,741.509948 838.738562,742.073775 836.661998,742.073775 C831.730159,742.073775 826.733426,737.628213 821.671802,728.737089 C816.610177,719.845964 814.079365,709.285043 814.079365,697.054325 C814.079365,675.281913 827.230936,656.762352 853.534081,641.49564 C855.178027,640.541471 856,639.457187 856,638.24279 C856,635.640509 854.875194,634.339369 852.625583,634.339369 C851.933395,634.339369 851.219576,634.556226 850.484127,634.989939 C849.748676,635.423653 849.07812,635.640509 848.472455,635.640509 C844.665421,635.640509 841.117957,628.744467 837.830065,614.952381 C831.946468,590.31746 819.140989,578 799.413632,578 C783.925926,578 772.89418,583.985245 766.318395,595.955734 C765.366635,597.690588 764.371615,598.558015 763.333333,598.558015 C762.295051,598.558015 761.170245,597.733959 759.958917,596.085848 C751.133521,584.028616 739.820573,578 726.020075,578 C712.219577,578 699.738562,584.679186 688.577031,598.037559 C687.711796,599.078471 686.889823,599.598927 686.111112,599.598927 C685.332401,599.598927 684.510427,599.078471 683.645192,598.037559 C672.310613,584.679186 657.406942,578 638.934175,578 C620.461407,578 605.68752,583.811759 594.612512,595.435278 C583.537505,607.058797 578,620.937626 578,637.071764 C578,669.947239 589.161532,686.384976 611.484594,686.384976 C614.859011,686.384976 618.666045,685.994634 622.905696,685.21395 C627.145348,684.433266 630.822596,684.042924 633.937442,684.042924 C641.984127,684.042924 646.00747,686.688575 646.00747,691.979879 C646.00747,695.189358 647.218799,696.794098 649.641456,696.794098 C652.064115,696.794098 653.275444,695.189358 653.275444,691.979879 C653.275444,670.64118 644.752879,659.971831 627.70775,659.971831 C624.679428,659.971831 621.348274,660.318801 617.714286,661.012743 C614.0803,661.706684 610.749145,662.053655 607.720822,662.053655 C592.752256,662.053655 585.267974,653.726358 585.267974,637.071764 C585.267974,626.662642 588.38282,618.465459 594.612512,612.480215 C600.842203,606.49497 610.338158,603.502347 623.100374,603.502347 C635.862589,603.502347 647.47837,609.74782 657.947712,622.238766 C674.300654,641.669126 682.477124,663.311424 682.477124,687.16566 C682.477124,711.019897 676.723312,729.886429 665.215686,743.765257 C662.533458,746.974737 659.894491,748.579476 657.298787,748.579476 C653.6648,748.579476 649.425147,744.806169 644.579833,737.259556 C637.917523,726.850435 630.260194,721.645875 621.607843,721.645875 C612.955494,721.645875 603.264862,728.498546 592.535948,742.20389 C591.58419,743.418287 591.10831,744.589313 591.10831,745.716968 C591.10831,747.972278 592.276378,749.099933 594.612512,749.099933 C595.823842,749.099933 596.991909,748.405991 598.116715,747.018109 C599.241519,745.630225 600.582634,744.936284 602.140056,744.936284 C605.774044,744.936284 610.056957,748.752961 614.988796,756.386316 C621.651105,766.795438 629.481483,772 638.479925,772 C647.47837,772 658.337069,764.019673 671.056022,748.059019 C693.898226,719.347194 705.319327,691.459423 705.319327,664.395707 C705.319327,642.363067 701.252724,624.537447 693.119515,610.918846 C692.340803,609.617706 691.951448,608.338252 691.951448,607.080483 C691.951448,605.822714 692.557112,604.499888 693.768441,603.112005 C696.537193,599.902526 700.560535,598.297787 705.838469,598.297787 C715.26953,598.297787 723.878618,604.543259 731.665732,617.034205 C743.779023,636.464565 749.835668,658.930918 749.835668,684.433266 C749.835668,709.675385 746.158419,727.97809 738.803921,739.34138 C736.554311,742.811089 734.088391,744.545941 731.406163,744.545941 C728.723935,744.545941 725.262994,742.138832 721.023343,737.324614 C716.783691,732.510396 711.851852,730.103286 706.227825,730.103286 C697.056334,730.103286 687.192656,738.951039 676.636788,756.646545 C676.117647,757.513972 675.858077,758.424771 675.858077,759.378939 C675.858077,761.634249 677.112667,762.761904 679.621849,762.761904 C680.919702,762.761904 682.066138,761.872792 683.061158,760.094566 C684.056178,758.316342 685.548709,757.42723 687.538749,757.42723 C690.307502,757.42723 693.833333,759.856025 698.116246,764.713614 C702.39916,769.571204 706.790227,772 711.28945,772 C720.807034,772 732.011827,762.414934 744.903829,743.244802 C765.063804,713.40532 775.143791,681.744243 775.143791,648.261569 C775.143791,637.852448 773.932462,628.354125 771.509804,619.7666 C770.558045,616.470378 770.082165,613.391013 770.082165,610.528504 C770.082165,606.538341 770.947401,602.851777 772.677871,599.468813 C774.840959,595.218422 778.128852,593.093226 782.541549,593.093226 C791.799564,593.093226 798.721445,602.808406 803.307189,622.238766 C806.508559,635.683881 811.829753,644.097921 819.270775,647.480885 C821.520386,648.521797 822.645191,649.649452 822.645191,650.86385 C822.645191,652.078247 821.909742,653.292644 820.438842,654.507042 C798.115779,672.89649 786.954248,694.018332 786.954248,717.872568 C786.954248,741.726805 794.438531,758.945226 809.407096,769.527832 C811.743231,771.175943 813.906317,772 815.896359,772 Z" id="M"></path>
        </g>
    </g>
</svg>