<?xml version="1.0" encoding="UTF-8"?>
<svg width="208px" height="194px" viewBox="0 0 208 194" version="1.1" xmlns="http://www.w3.org/2000/svg" xmlns:xlink="http://www.w3.org/1999/xlink">
    <!-- Generator: Sketch 59.1 (86144) - https://sketch.com -->
    <title>N</title>
    <desc>Created with Sketch.</desc>
    <g id="Page-1" stroke="none" stroke-width="1" fill="none" fill-rule="evenodd">
        <g id="Desktop-HD" transform="translate(-1834.000000, -578.000000)" fill="#000000" fill-rule="nonzero">
            <path d="M2002.04004,772 C2004.12264,772 2006.07509,771.306058 2007.89737,769.918176 L2007.89737,769.918176 L2035.36169,749.36016 C2037.01043,748.145763 2037.83479,746.801252 2037.83479,745.326626 C2037.83479,743.071315 2036.83688,741.943662 2034.84105,741.943662 C2033.79974,741.943662 2032.5632,742.464117 2031.13141,743.505029 C2029.69961,744.545941 2028.33292,745.066398 2027.03128,745.066398 C2023.38673,745.066398 2019.43847,741.770176 2015.18648,735.177732 C2009.28576,726.069751 2006.33542,713.795662 2006.33542,698.355466 C2006.33542,670.424323 2017.26909,649.996423 2039.13641,637.071764 C2041.04547,635.944109 2042,634.68634 2042,633.298457 C2042,630.869662 2040.95869,629.655265 2038.87609,629.655265 C2038.00835,629.655265 2037.07551,629.937178 2036.0776,630.501006 C2035.07968,631.064833 2034.23362,631.346747 2033.53942,631.346747 C2029.54776,631.346747 2025.94659,624.710932 2022.73592,611.439302 C2017.35586,589.146434 2003.602,578 1981.47433,578 C1968.28452,578 1955.52858,587.498323 1943.20651,606.49497 C1942.07842,608.229823 1940.92866,609.09725 1939.75719,609.09725 C1938.58572,609.09725 1937.39256,608.143081 1936.17772,606.234742 C1923.59532,587.411581 1906.71756,578 1885.54443,578 C1870.01167,578 1857.53775,582.792533 1848.12265,592.377599 C1838.70754,601.962665 1834,612.892242 1834,625.166331 C1834,637.44042 1837.64455,647.3074 1844.93366,654.76727 C1852.30955,662.140398 1860.96537,665.826961 1870.90113,665.826961 C1880.83687,665.826961 1888.71172,663.571652 1894.52565,659.061033 C1896.0876,657.846635 1896.86858,656.632238 1896.86858,655.41784 C1896.86858,653.075788 1895.69712,651.904762 1893.35419,651.904762 C1892.22612,651.904762 1891.05465,652.338475 1889.83979,653.205902 C1885.84813,656.06841 1880.46808,657.499664 1873.69962,657.499664 C1866.93115,657.499664 1861.26908,655.027498 1856.71339,650.083165 C1852.1577,645.138833 1849.87984,639.240331 1849.87984,632.387659 C1849.87984,625.534987 1852.26615,619.528057 1857.03879,614.366868 C1861.81143,609.205678 1868.36295,606.625084 1876.69336,606.625084 C1887.62703,606.625084 1896.60825,611.569416 1903.63705,621.458082 C1913.52941,635.510395 1918.4756,649.90968 1918.4756,664.655935 C1918.4756,692.67382 1901.3375,721.385647 1867.06133,750.791414 C1865.84646,751.832326 1865.23905,752.959981 1865.23905,754.174379 C1865.23905,756.603173 1866.41051,757.817572 1868.75343,757.817572 C1869.79474,757.817572 1871.07468,757.145315 1872.59323,755.800804 C1874.1118,754.456292 1876.12932,753.784037 1878.64581,753.784037 C1882.81101,753.784037 1887.54025,756.342946 1892.83353,761.460764 C1900.03587,768.48692 1907.15143,772 1914.18022,772 C1925.37422,772 1936.22111,763.759445 1946.72089,747.278336 C1947.32832,746.324167 1947.63204,745.326626 1947.63204,744.285714 C1947.63204,742.117147 1946.50396,741.032863 1944.2478,741.032863 C1942.85941,741.032863 1941.49269,742.05209 1940.14767,744.090542 C1938.80267,746.128995 1936.9587,747.148222 1934.61577,747.148222 C1930.79766,747.148222 1925.7647,744.112228 1919.51689,738.040241 C1915.09136,733.78985 1909.92824,731.664654 1904.02753,731.664654 C1901.42427,731.664654 1900.12265,731.317683 1900.12265,730.623742 C1900.12265,729.9298 1900.73008,728.93226 1901.94493,727.631119 C1932.14267,695.623071 1947.24154,666.911245 1947.24154,641.49564 C1947.24154,637.505477 1946.91614,633.949027 1946.26533,630.826291 C1945.61452,627.703554 1945.28911,625.231388 1945.28911,623.409792 C1945.28911,618.985915 1946.59073,614.735524 1949.19399,610.658618 C1954.40049,602.504807 1961.38589,598.427901 1970.15018,598.427901 C1978.91447,598.427901 1984.85857,605.020344 1987.98247,618.205231 C1991.62702,633.558685 1998.39549,642.363067 2008.28785,644.618377 C2010.1969,645.05209 2011.15143,645.70266 2011.15143,646.570087 C2011.15143,647.437514 2010.67418,648.304941 2009.71964,649.172367 C1987.93909,668.949698 1977.0488,693.931589 1977.0488,724.118041 C1977.0488,742.073775 1983.25323,756.993517 1995.66207,768.877262 C1997.83145,770.959086 1999.95744,772 2002.04004,772 Z" id="N"></path>
        </g>
    </g>
</svg>