<?xml version="1.0" encoding="UTF-8"?>
<svg width="219px" height="193px" viewBox="0 0 219 193" version="1.1" xmlns="http://www.w3.org/2000/svg" xmlns:xlink="http://www.w3.org/1999/xlink">
    <!-- Generator: Sketch 59.1 (86144) - https://sketch.com -->
    <title>N2</title>
    <desc>Created with Sketch.</desc>
    <g id="Page-1" stroke="none" stroke-width="1" fill="none" fill-rule="evenodd">
        <g id="Desktop-HD" transform="translate(-587.000000, -249.000000)" fill="#000000" fill-rule="nonzero">
            <path d="M745.398322,249 C767.653606,249 781.749186,261.264326 787.685055,285.792978 C790.982758,299.496229 794.559499,306.35622 798.415279,306.372952 C799.137789,306.334854 799.83754,306.10985 800.444636,305.720416 C801.091116,305.315319 801.83592,305.089918 802.600831,305.06788 C804.858492,305.06788 806,306.372952 806,308.957997 C806,310.162679 805.162891,311.241873 803.463306,312.195578 C776.929464,327.404681 763.66254,345.809536 763.66254,367.410143 C763.365269,378.395696 765.989505,389.265826 771.272627,398.93264 C776.346021,407.792068 781.419414,412.209233 786.492808,412.209233 C788.293744,412.317015 790.064118,411.712089 791.413996,410.527698 C792.188877,409.607487 793.283866,409.007609 794.4834,408.846164 C796.842528,408.846164 798.009408,410.10104 798.009408,412.585696 C797.971973,413.795448 797.407789,414.93013 796.462023,415.697789 L771.577032,439.138882 C770.030106,440.836098 767.870863,441.863691 765.565063,442 C763.17522,441.846189 760.890726,440.970132 759.020384,439.490247 C743.935496,428.949285 736.384595,411.807672 736.367682,388.06541 C736.350775,364.323147 747.60525,343.299783 770.131113,324.995318 C771.377644,324.175433 772.194608,322.852778 772.363408,321.381275 C772.363408,320.176593 771.221894,319.047204 768.964232,318.018205 C761.371058,314.554746 756.001713,306.188904 752.85621,292.920676 C748.93279,276.540355 742.692516,268.341829 734.135393,268.325098 C725.936954,268.12895 718.294283,272.411223 714.24769,279.4684 C711.807886,283.126718 710.446367,287.385154 710.315811,291.76619 C710.267978,295.389023 710.711628,299.00183 711.634891,302.507932 C714.332422,313.087724 715.603344,323.974115 715.414571,334.883745 C715.414571,361.838492 703.897971,389.596359 680.864764,418.157347 C668.029084,434.052449 657.079007,442 648.014548,442 C638.950082,442 631.052503,436.821543 624.321798,426.46463 C619.349877,418.851712 615.029033,415.05362 611.359279,415.070351 C609.753414,415.082146 608.248009,415.845471 607.300566,417.128349 C606.508325,418.318914 605.209703,419.086113 603.774558,419.211443 C602.817393,419.359628 601.845323,419.055791 601.147931,418.390446 C600.450532,417.725102 600.108304,416.775036 600.223183,415.823277 C600.292971,414.532203 600.802623,413.302565 601.669102,412.334721 C612.86439,398.815518 622.749046,392.055917 631.323081,392.055917 C639.897117,392.055917 647.507204,397.234374 654.153349,407.591288 C659.05763,415.103814 663.336195,418.860078 666.989036,418.860078 C670.236407,418.505274 673.160217,416.751254 674.979628,414.06645 C686.563874,400.262809 692.364457,381.481491 692.381364,357.722497 C692.398277,333.963502 684.154013,312.421456 667.648579,293.096359 C657.095921,280.681448 645.376382,274.465626 632.489962,274.448895 C619.603542,274.432163 610.031745,277.410403 603.774558,283.383615 C597.483551,289.356827 594.338047,297.52189 594.338047,307.878803 C594.338047,324.443173 601.888948,332.725358 616.990749,332.725358 C620.398569,332.705649 623.796534,332.361057 627.137536,331.696359 C630.480662,331.045669 633.877287,330.701213 637.284317,330.66736 C654.449301,330.66736 663.040243,341.283615 663.057156,362.516125 C663.057156,365.728609 661.839543,367.309753 659.404315,367.309753 C656.969081,367.309753 655.726101,365.728609 655.726101,362.516125 C655.726101,357.262376 651.667389,354.6355 643.549958,354.6355 C639.818894,354.690085 636.100345,355.076469 632.439229,355.789987 C628.567498,356.521655 624.635995,356.899708 620.694323,356.919376 C598.236107,356.919376 587.006992,340.547421 587.006992,307.803511 C586.766185,292.352097 592.754158,277.441818 603.647725,266.36749 C614.707721,254.789163 629.936355,249 649.333628,249 C668.7309,249 685.303981,257.892891 699.052876,275.678674 C700.8032,277.937451 702.375952,279.041742 703.771131,279.041742 C705.166317,279.041742 706.612236,277.937451 708.083516,275.678674 C719.887614,257.892891 732.325883,249 745.398322,249 Z" id="N2"></path>
        </g>
    </g>
</svg>