<?xml version="1.0" encoding="UTF-8"?>
<svg width="185px" height="197px" viewBox="0 0 185 197" version="1.1" xmlns="http://www.w3.org/2000/svg" xmlns:xlink="http://www.w3.org/1999/xlink">
    <!-- Generator: Sketch 59.1 (86144) - https://sketch.com -->
    <title>O</title>
    <desc>Created with Sketch.</desc>
    <g id="Page-1" stroke="none" stroke-width="1" fill="none" fill-rule="evenodd">
        <g id="Desktop-HD" transform="translate(-392.000000, -578.000000)" fill="#000000" fill-rule="nonzero">
            <path d="M483.582861,775 C509.000709,775 529.789189,767.37643 545.9483,752.129288 C566.649434,732.723834 577,709.073439 577,681.1781 C577,636.216359 556.298867,604.812445 514.896601,586.966359 C500.921152,580.988786 490.046506,578 482.272663,578 C479.56492,578 477.206562,579.42942 475.197592,582.288259 C467.860482,592.770668 457.116855,601.217238 442.966714,607.627968 C411.958688,621.748901 396.454675,637.840699 396.454675,655.903364 C396.454675,673.966029 408.028092,687.415567 431.174929,696.251979 C447.770775,702.576077 456.068697,708.077177 456.068697,712.755277 C456.068697,713.794855 455.566454,714.85609 454.561969,715.938984 C453.557484,717.021878 453.055241,718.126429 453.055241,719.252638 C453.055241,721.331794 454.234419,722.371372 456.592777,722.371372 C458.077668,722.371372 459.475213,721.67832 460.785411,720.292216 C470.568225,709.983069 475.459632,700.886763 475.459632,693.003298 C475.459632,681.394679 465.589472,671.735268 445.84915,664.025066 C431.262276,658.394019 423.968838,651.4635 423.968838,643.233509 C423.968838,631.01847 431.436969,621.315743 446.373229,614.12533 C452.225449,611.439754 458.252361,610.096966 464.453966,610.096966 C474.411474,610.096966 485.897545,612.912489 498.912182,618.543536 C537.432012,635.176781 556.691926,663.895119 556.691926,704.698549 C556.691926,722.891161 552.084397,736.297384 542.869335,744.917216 C533.654274,753.53705 522.015346,757.846965 507.95255,757.846965 C494.151795,757.846965 477.905335,749.833553 459.213173,733.806728 C449.867092,725.75 439.800401,721.721636 429.013102,721.721636 C418.225802,721.721636 406.586874,727.48263 394.096317,739.004617 C392.698771,740.30409 392,741.560247 392,742.773087 C392,744.852243 393.179178,745.891821 395.537535,745.891821 C396.760387,745.891821 398.005076,745.328716 399.271601,744.202506 C400.538126,743.076296 402.219546,742.513192 404.315864,742.513192 C410.604816,742.513192 420.45314,747.92766 433.860836,758.756596 C447.268532,769.585532 463.84254,775 483.582861,775 Z" id="O"></path>
        </g>
    </g>
</svg>