<?xml version="1.0" encoding="UTF-8"?>
<svg width="154px" height="197px" viewBox="0 0 154 197" version="1.1" xmlns="http://www.w3.org/2000/svg" xmlns:xlink="http://www.w3.org/1999/xlink">
    <!-- Generator: Sketch 59.1 (86144) - https://sketch.com -->
    <title>S</title>
    <desc>Created with Sketch.</desc>
    <g id="Page-1" stroke="none" stroke-width="1" fill="none" fill-rule="evenodd">
        <g id="Desktop-HD" transform="translate(-1313.000000, -578.000000)" fill="#000000" fill-rule="nonzero">
            <path d="M1401.37131,775 C1420.86498,775 1438.06273,763.131486 1452.96456,739.394459 C1462.32152,724.580475 1467,707.492414 1467,688.130277 C1467,668.76814 1457.59972,654.062445 1438.79916,644.013193 C1434.55387,641.760774 1430.30858,640.634565 1426.06329,640.634565 C1413.67398,640.634565 1401.89114,649.644239 1390.71477,667.663588 C1389.15527,670.175901 1386.25288,671.432058 1382.0076,671.432058 C1377.76231,671.432058 1371.30773,669.093008 1362.64388,664.414908 C1346.35584,655.578496 1338.21181,645.399296 1338.21181,633.877309 C1338.21181,627.206684 1340.46442,620.687665 1344.96962,614.320251 C1349.47482,607.952836 1355.19297,604.769129 1362.12405,604.769129 C1369.05513,604.769129 1378.00056,607.7146 1388.96034,613.605541 C1399.92011,619.496482 1409.60197,622.441952 1418.00591,622.441952 C1435.76681,622.441952 1447.76624,609.923703 1454.00422,584.887203 C1454.26413,583.847625 1454.39409,582.937995 1454.39409,582.158311 C1454.39409,579.73263 1453.22447,578.519789 1450.88523,578.519789 C1449.06582,578.519789 1447.80956,579.862577 1447.11646,582.548153 C1445.38368,589.305409 1441.22504,592.684037 1434.64051,592.684037 C1428.05598,592.684037 1420.15021,590.236697 1410.92321,585.342018 C1401.6962,580.447339 1393.31392,578 1385.77637,578 C1369.6616,578 1354.56484,587.984279 1340.48608,607.952836 C1326.40731,627.921394 1319.36793,645.204375 1319.36793,659.801781 C1319.36793,674.399186 1327.03544,685.682938 1342.37046,693.653034 C1348.5218,696.858399 1354.3699,698.461082 1359.91477,698.461082 C1372.99719,698.461082 1385.21322,689.62467 1396.56287,671.951847 C1398.12236,669.526165 1400.6782,668.313324 1404.23038,668.313324 C1407.78256,668.313324 1412.591,669.916007 1418.6557,673.121372 C1440.9218,684.903254 1452.05485,698.461082 1452.05485,713.794855 C1452.05485,722.544635 1450.23544,729.864996 1446.59662,735.755937 C1441.1384,744.419085 1432.34459,748.750659 1420.21519,748.750659 C1408.08579,748.750659 1392.66413,741.560247 1373.95021,727.179419 C1365.54627,720.768689 1357.53221,717.563324 1349.90802,717.563324 C1337.25879,717.563324 1325.34599,726.269789 1314.16962,743.682717 C1313.38987,744.895559 1313,746.065083 1313,747.191293 C1313,749.443712 1314.16962,750.56992 1316.50886,750.56992 C1317.89508,750.56992 1319.19466,749.616974 1320.40759,747.711081 C1322.40028,744.67898 1325.64923,743.162929 1330.15443,743.162929 C1334.65963,743.162929 1341.5474,746.71482 1350.81772,753.818602 C1369.35837,767.939534 1386.20956,775 1401.37131,775 Z" id="S"></path>
        </g>
    </g>
</svg>