<?xml version="1.0" encoding="UTF-8"?>
<svg width="159px" height="242px" viewBox="0 0 159 242" version="1.1" xmlns="http://www.w3.org/2000/svg" xmlns:xlink="http://www.w3.org/1999/xlink">
    <!-- Generator: Sketch 59.1 (86144) - https://sketch.com -->
    <title>Y</title>
    <desc>Created with Sketch.</desc>
    <g id="Page-1" stroke="none" stroke-width="1" fill="none" fill-rule="evenodd">
        <g id="Desktop-HD" transform="translate(-806.000000, -249.000000)" fill="#000000" fill-rule="nonzero">
            <path d="M850.537937,249 C852.708054,249 853.793115,250.211388 853.793115,252.659402 C853.793115,254.04745 852.834228,255.309313 850.916446,256.419752 C841.815398,261.820524 837.256459,268.676644 837.239641,276.988111 C837.222816,285.299579 842.631294,295.503841 853.465073,307.600897 C864.332501,319.714778 869.766212,332.022144 869.766212,344.522995 C869.766212,357.023847 861.825926,370.357528 845.945355,384.524038 C844.659484,385.416675 843.807904,386.808691 843.598597,388.360101 C843.598597,389.521014 845.213569,390.429555 848.418281,391.035249 C856.930535,392.717733 864.088568,398.337227 869.892379,407.893733 C875.696191,417.450238 882.038328,422.245316 888.918786,422.278966 C893.612302,422.278966 898.381519,419.75524 903.226436,414.70779 C911.972128,405.791224 916.764518,393.731376 916.524732,381.243196 L916.524732,287.486808 C916.524732,284.357389 915.162102,282.817917 912.4116,282.817917 C909.661099,282.817917 908.323696,281.657003 908.323696,279.360413 C908.193501,277.218617 909.711921,275.328532 911.831216,274.994369 C926.971593,271.091007 942.465245,262.930962 958.312168,250.514235 C959.296162,249.653739 960.539791,249.147339 961.844922,249.075712 C962.705754,248.956946 963.572516,249.248226 964.186981,249.862769 C964.801445,250.477312 965.092687,251.344189 964.973933,252.205131 C964.853586,253.809294 964.043487,255.282397 962.753348,256.243091 C951.465353,266.220218 945.821358,276.315118 945.821358,286.527792 L945.821358,347.500991 C945.59406,363.965733 946.682584,380.422317 949.076543,396.71363 C950.830975,406.003866 951.918815,415.407701 952.331722,424.853166 C952.331722,441.543401 945.409206,456.736226 931.564175,470.431641 C917.719144,484.127055 899.214239,490.983175 876.049467,491 C852.918337,491 830.76292,480.408767 809.583221,459.226301 C808.511001,458.324218 807.862013,457.016928 807.791607,455.617374 C807.653232,454.646534 807.981687,453.667388 808.677502,452.97645 C809.373318,452.285512 810.354667,451.964044 811.324361,452.109396 C812.687835,452.227211 813.949075,452.880597 814.831882,453.926479 C829.77039,468.866931 847.173409,476.328745 867.040944,476.31192 C886.908479,476.295095 901.619879,470.784962 911.175138,459.78152 C917.810977,452.473458 921.482151,442.952365 921.47059,433.080509 C921.451001,429.147833 920.951029,425.232283 919.981786,421.420899 C918.972431,417.483888 917.458393,415.515383 915.540611,415.515383 C913.62283,415.515383 911.149904,416.979143 908.197528,419.931902 C892.670233,435.478048 879.102777,443.251121 867.495154,443.251121 C855.887531,443.251121 846.256573,436.975458 838.602271,424.424132 C830.914328,411.839156 824.11798,405.546668 818.213234,405.546668 C816.44889,405.539376 814.711853,405.982378 813.166442,406.833768 C811.991062,407.587561 810.647292,408.038433 809.255179,408.146105 C807.085062,408.146105 806,406.959954 806,404.61289 C806,403.233253 806.90842,402.021865 808.725268,400.978726 C829.820857,388.91532 840.368652,375.716237 840.368652,361.381479 C840.368652,351.135155 835.229334,340.266312 824.9507,328.77495 C814.672071,317.283589 809.524345,306.280147 809.50752,295.764626 C809.50752,279.427713 822.006739,264.226475 847.005183,250.160914 C848.072767,249.496473 849.284364,249.098325 850.537937,249 Z" id="Y"></path>
        </g>
    </g>
</svg>