<svg xmlns="http://www.w3.org/2000/svg" width="20" height="20" viewBox="0 0 20 20">
    <g fill="none" fill-rule="evenodd">
        <g fill="#000" fill-rule="nonzero">
            <path d="M60 761c1.372 0 2.661-.262 3.868-.787 1.207-.525 2.27-1.247 3.19-2.166.919-.919 1.639-1.98 2.16-3.184.521-1.204.782-2.491.782-3.863 0-1.372-.26-2.66-.782-3.863-.521-1.204-1.243-2.267-2.166-3.19-.922-.922-1.987-1.644-3.194-2.165-1.207-.521-2.497-.782-3.868-.782-1.358 0-2.64.26-3.848.782-1.207.521-2.272 1.243-3.194 2.166-.923.922-1.645 1.985-2.166 3.189C50.26 748.34 50 749.628 50 751c0 1.372.262 2.66.787 3.863.525 1.204 1.247 2.265 2.166 3.184.919.92 1.982 1.641 3.189 2.166 1.207.525 2.493.787 3.858.787zm0-1.842c-1.125 0-2.181-.21-3.169-.632-.987-.422-1.853-1.005-2.597-1.75-.745-.743-1.326-1.61-1.744-2.597-.419-.988-.628-2.047-.628-3.179 0-1.125.21-2.181.628-3.169.418-.987 1-1.855 1.744-2.603.744-.747 1.608-1.332 2.592-1.754.984-.422 2.039-.632 3.164-.632 1.138 0 2.2.21 3.184.632.984.422 1.85 1.007 2.598 1.754.747.748 1.332 1.616 1.754 2.603.422.988.632 2.044.632 3.169.007 1.132-.202 2.191-.627 3.179s-1.008 1.854-1.75 2.598c-.74.744-1.604 1.327-2.592 1.749-.987.422-2.05.632-3.189.632zm-.072-11.522c.363 0 .67-.129.92-.386.251-.257.376-.564.376-.92 0-.371-.125-.683-.375-.937s-.558-.38-.921-.38c-.357 0-.662.126-.916.38-.253.254-.38.566-.38.936 0 .357.127.664.38.921.254.257.56.386.916.386zm2.315 8.693c.212 0 .39-.068.535-.206.144-.137.216-.312.216-.524 0-.206-.072-.377-.216-.515-.144-.137-.323-.205-.535-.205H61.11v-4.764c0-.274-.068-.497-.206-.668-.137-.172-.34-.258-.607-.258h-1.841c-.206 0-.383.069-.53.206-.148.137-.221.309-.221.514 0 .213.073.388.221.525.147.137.324.206.53.206h1.008v4.239h-1.173c-.212 0-.39.068-.535.205-.144.138-.216.309-.216.515 0 .212.072.387.216.524.144.138.323.206.535.206h3.95z" transform="translate(-50.000000, -741.000000)"/>
        </g>
    </g>
</svg>
