<?xml version="1.0" encoding="UTF-8"?>
<svg width="50px" height="50px" viewBox="0 0 50 50" version="1.1" xmlns="http://www.w3.org/2000/svg" xmlns:xlink="http://www.w3.org/1999/xlink">
    <title>Group</title>
    <defs>
        <filter color-interpolation-filters="auto" id="filter-1">
            <feColorMatrix in="SourceGraphic" type="matrix" values="0 0 0 0 0.000000 0 0 0 0 0.000000 0 0 0 0 0.000000 0 0 0 1.000000 0"></feColorMatrix>
        </filter>
    </defs>
    <g id="Design" stroke="none" stroke-width="1" fill="none" fill-rule="evenodd">
        <g id="Group" transform="translate(-699.000000, -837.000000)" filter="url(#filter-1)">
            <g transform="translate(699.000000, 837.000000)">
                <path d="M24.9742798,0 C28.4036351,0 31.6272291,0.651577503 34.6450617,1.95473251 C37.6628944,3.25788752 40.3249314,5.06258573 42.6311728,7.36882716 C44.9374143,9.67506859 46.7421125,12.3328189 48.0452675,15.3420782 C49.3484225,18.3513374 50,21.5706447 50,25 C50,28.4293553 49.3484225,31.6486626 48.0452675,34.6579218 C46.7421125,37.6671811 44.941701,40.3206447 42.6440329,42.6183128 C40.3463649,44.9159808 37.6886145,46.720679 34.6707819,48.0324074 C31.6529492,49.3441358 28.4293553,50 25,50 C21.5877915,50 18.3727709,49.3441358 15.3549383,48.0324074 C12.3371056,46.720679 9.67935528,44.9159808 7.38168724,42.6183128 C5.0840192,40.3206447 3.27932099,37.6671811 1.96759259,34.6579218 C0.655864198,31.6486626 0,28.4293553 0,25 C0,21.5706447 0.651577503,18.3513374 1.95473251,15.3420782 C3.25788752,12.3328189 5.06258573,9.67506859 7.36882716,7.36882716 C9.67506859,5.06258573 12.3371056,3.25788752 15.3549383,1.95473251 C18.3727709,0.651577503 21.5792181,0 24.9742798,0 Z M24.9742798,4.60390947 C22.1622085,4.60390947 19.5258916,5.13117284 17.0653292,6.18569959 C14.6047668,7.24022634 12.444273,8.70198903 10.5838477,10.5709877 C8.7234225,12.4399863 7.2702332,14.6090535 6.22427984,17.0781893 C5.17832647,19.5473251 4.65534979,22.1879287 4.65534979,25 C4.65534979,27.8292181 5.17832647,30.4783951 6.22427984,32.9475309 C7.2702332,35.4166667 8.7234225,37.5814472 10.5838477,39.4418724 C12.444273,41.3022977 14.6090535,42.7597737 17.0781893,43.8143004 C19.5473251,44.8688272 22.1879287,45.3960905 25,45.3960905 C27.8463649,45.3960905 30.5041152,44.8688272 32.973251,43.8143004 C35.4423868,42.7597737 37.6028807,41.3022977 39.4547325,39.4418724 C41.3065844,37.5814472 42.7640604,35.4166667 43.8271605,32.9475309 C44.8902606,30.4783951 45.4132373,27.8292181 45.3960905,25 C45.3960905,22.1879287 44.8688272,19.5473251 43.8143004,17.0781893 C42.7597737,14.6090535 41.298011,12.4399863 39.4290123,10.5709877 C37.5600137,8.70198903 35.3952332,7.24022634 32.9346708,6.18569959 C30.4741084,5.13117284 27.8206447,4.60390947 24.9742798,4.60390947 Z" id="Combined-Shape" fill="#000000" fill-rule="nonzero"></path>
                <path d="M22.8652263,35.3395062 C23.3967764,35.3395062 23.8383059,35.1551783 24.1898148,34.7865226 C24.5413237,34.4178669 24.7170782,33.9677641 24.7170782,33.436214 C24.7170782,32.8532236 24.5198903,32.3816872 24.1255144,32.0216049 L21.1419753,29.1409465 L18.287037,26.8004115 L23.3539095,27.0061728 L35.622428,27.0061728 C36.2054184,27.0061728 36.6769547,26.8132716 37.037037,26.4274691 C37.3971193,26.0416667 37.5771605,25.5572702 37.5771605,24.9742798 C37.5771605,24.3912894 37.3928326,23.9111797 37.024177,23.5339506 C36.6555213,23.1567215 36.1882716,22.968107 35.622428,22.968107 L23.3539095,22.968107 L18.3127572,23.1738683 L21.1419753,20.8847737 L24.1255144,17.9526749 C24.5198903,17.558299 24.7170782,17.0867627 24.7170782,16.5380658 C24.7170782,16.0236626 24.5413237,15.5821331 24.1898148,15.2134774 C23.8383059,14.8448217 23.3967764,14.6604938 22.8652263,14.6604938 C22.3165295,14.6604938 21.8535665,14.840535 21.4763374,15.2006173 L13.2201646,23.4053498 C12.7229081,23.9197531 12.4742798,24.4427298 12.4742798,24.9742798 C12.4742798,25.5572702 12.7229081,26.0973937 13.2201646,26.5946502 L21.4763374,34.7736626 C21.8535665,35.1508916 22.3165295,35.3395062 22.8652263,35.3395062 Z" id="Path" fill="#000000" fill-rule="nonzero"></path>
            </g>
        </g>
    </g>
</svg>