<svg xmlns="http://www.w3.org/2000/svg" width="20" height="20" viewBox="0 0 20 20">
    <g fill="none" fill-rule="evenodd">
        <g fill="#E5502F" fill-rule="nonzero">
            <path d="M339 86c1.372 0 2.661-.262 3.868-.787 1.207-.525 2.27-1.247 3.19-2.166.919-.919 1.639-1.98 2.16-3.184.521-1.204.782-2.491.782-3.863 0-1.372-.26-2.66-.782-3.863-.521-1.204-1.243-2.267-2.166-3.19-.922-.922-1.987-1.644-3.194-2.165-1.207-.521-2.497-.782-3.868-.782-1.358 0-2.64.26-3.848.782-1.207.521-2.272 1.243-3.194 2.166-.923.922-1.645 1.985-2.166 3.189C329.26 73.34 329 74.628 329 76c0 1.372.262 2.66.787 3.863.525 1.204 1.247 2.265 2.166 3.184.919.92 1.982 1.641 3.189 2.166 1.207.525 2.493.787 3.858.787zm0-1.842c-1.125 0-2.181-.21-3.169-.632-.987-.422-1.853-1.005-2.597-1.75-.745-.743-1.326-1.61-1.744-2.597-.419-.988-.628-2.047-.628-3.179 0-1.125.21-2.181.628-3.169.418-.987 1-1.855 1.744-2.603.744-.747 1.608-1.332 2.592-1.754.984-.422 2.039-.632 3.164-.632 1.138 0 2.2.21 3.184.632.984.422 1.85 1.007 2.598 1.754.747.748 1.332 1.616 1.754 2.603.422.988.632 2.044.632 3.169.007 1.132-.202 2.191-.627 3.179s-1.008 1.854-1.75 2.598c-.74.744-1.604 1.327-2.592 1.749-.987.422-2.05.632-3.189.632zm3.261-4.053c.227 0 .422-.082.587-.247.164-.165.247-.36.247-.586 0-.227-.083-.426-.247-.597l-2.655-2.654 2.665-2.675c.165-.165.247-.357.247-.576 0-.234-.082-.43-.247-.592-.165-.161-.36-.242-.586-.242-.22 0-.419.083-.597.247L339 74.848l-2.665-2.655c-.157-.157-.35-.236-.576-.236-.24 0-.44.079-.602.236-.16.158-.241.35-.241.577 0 .233.085.428.257.586l2.654 2.665-2.654 2.664c-.172.158-.257.353-.257.587 0 .226.08.421.241.586.162.165.362.247.602.247s.44-.082.597-.247L339 77.204l2.654 2.654c.172.165.374.247.607.247z" transform="translate(-329.000000, -66.000000)"/>
        </g>
    </g>
</svg>
