<svg xmlns="http://www.w3.org/2000/svg" width="20" height="21" viewBox="0 0 20 21">
    <g fill="none" fill-rule="evenodd">
        <g fill="#E5502F" fill-rule="nonzero">
            <path d="M33.71 563.928l1.334-1.364c-.58-.053-1.076-.168-1.488-.346-.412-.178-.763-.416-1.053-.712-.54-.528-.9-1.116-1.078-1.766-.178-.649-.178-1.295 0-1.938s.534-1.23 1.068-1.765l3.085-3.075c.528-.534 1.115-.89 1.76-1.068.647-.178 1.291-.178 1.934 0s1.234.53 1.775 1.058c.534.54.89 1.134 1.068 1.78.178.646.176 1.29-.005 1.933s-.536 1.228-1.063 1.755l-1.7 1.711c.138.323.227.67.266 1.038.04.37.03.722-.03 1.058l2.7-2.7c.765-.764 1.274-1.604 1.528-2.52.254-.917.252-1.835-.005-2.755-.257-.92-.768-1.762-1.533-2.526-.765-.765-1.607-1.276-2.526-1.533-.92-.257-1.838-.257-2.754 0-.917.257-1.754.765-2.512 1.523l-3.234 3.233c-.751.758-1.254 1.596-1.508 2.512-.254.916-.255 1.834-.005 2.754.25.92.758 1.762 1.523 2.527.284.283.621.525 1.014.726.392.202.872.355 1.439.46zM31 569.842c.916-.257 1.754-.762 2.512-1.513l3.223-3.234c.759-.758 1.266-1.597 1.523-2.517.257-.92.26-1.837.005-2.754-.254-.916-.766-1.76-1.537-2.531-.284-.277-.618-.516-1.004-.717-.386-.201-.865-.354-1.439-.46l-1.345 1.355c.58.053 1.076.168 1.488.346.412.178.77.415 1.073.712.528.534.88 1.124 1.058 1.77.178.646.178 1.292 0 1.938-.178.646-.53 1.233-1.058 1.76l-3.085 3.076c-.534.54-1.122.9-1.765 1.078-.643.178-1.287.178-1.933 0-.646-.178-1.233-.534-1.76-1.068-.541-.534-.9-1.124-1.078-1.77-.178-.646-.178-1.29 0-1.934.178-.642.534-1.23 1.068-1.765l1.69-1.7c-.138-.324-.227-.67-.266-1.039-.04-.369-.027-.722.04-1.058l-2.71 2.7c-.752.764-1.255 1.603-1.508 2.516-.254.913-.256 1.83-.005 2.75.25.92.758 1.765 1.523 2.536.77.765 1.616 1.274 2.536 1.528.92.254 1.838.252 2.754-.005z" transform="translate(-24.000000, -550.000000)"/>
        </g>
    </g>
</svg>
