<?xml version="1.0" encoding="UTF-8"?>
<svg width="1239px" height="148px" viewBox="0 0 1239 148" version="1.1" xmlns="http://www.w3.org/2000/svg" xmlns:xlink="http://www.w3.org/1999/xlink">
    <!-- Generator: Sketch 59.1 (86144) - https://sketch.com -->
    <title>MOMDESIGN</title>
    <desc>Created with Sketch.</desc>
    <g id="Page-1" stroke="none" stroke-width="1" fill="none" fill-rule="evenodd">
        <g id="Desktop-HD" transform="translate(-109.000000, -459.000000)" fill="#000000" fill-rule="nonzero">
            <path d="M262.046981,583.673446 C263.324431,583.673446 264.60188,583.062491 265.879331,581.840582 L265.879331,581.840582 L281.708604,566.761116 C282.375099,566.150162 282.708348,565.483667 282.708348,564.761629 C282.708348,563.150931 281.958539,562.345583 280.458924,562.345583 C279.903511,562.345583 279.250901,562.706601 278.501093,563.428638 C277.751285,564.150675 276.709886,564.511693 275.376895,564.511693 C272.21104,564.511693 269.00353,561.665202 265.754363,555.972218 C262.505197,550.279234 260.880613,543.517079 260.880613,535.685755 C260.880613,521.744887 269.322892,509.886817 286.207449,500.111547 C287.262734,499.500593 287.790376,498.806326 287.790376,498.028748 C287.790376,496.362509 287.06834,495.529389 285.624266,495.529389 C285.179935,495.529389 284.72172,495.668242 284.249618,495.945949 C283.777517,496.223655 283.347072,496.362509 282.958283,496.362509 C280.514465,496.362509 278.237272,491.946975 276.126702,483.115907 C272.349893,467.342175 264.12978,459.45531 251.466361,459.45531 C241.524468,459.45531 234.442951,463.28766 230.221811,470.95236 C229.610857,472.063186 228.972132,472.6186 228.305636,472.6186 C227.639141,472.6186 226.917103,472.090957 226.139525,471.035672 C220.474311,463.31543 213.212285,459.45531 204.353447,459.45531 C195.494608,459.45531 187.482774,463.73199 180.317946,472.285352 C179.762533,472.951847 179.23489,473.285095 178.735019,473.285095 C178.235147,473.285095 177.707504,472.951847 177.152091,472.285352 C169.87618,463.73199 160.30919,459.45531 148.45112,459.45531 C136.593051,459.45531 127.109373,463.176577 120.000085,470.619112 C112.890798,478.061648 109.336154,486.948257 109.336154,497.27894 C109.336154,518.329096 116.500983,528.854174 130.83064,528.854174 C132.996751,528.854174 135.440569,528.604238 138.162093,528.104366 C140.883617,527.604495 143.244123,527.354559 145.24361,527.354559 C150.408951,527.354559 152.991622,529.048569 152.991622,532.436588 C152.991622,534.491617 153.769201,535.519131 155.324357,535.519131 C156.879514,535.519131 157.657092,534.491617 157.657092,532.436588 C157.657092,518.773427 152.186273,511.941846 141.244636,511.941846 C139.30069,511.941846 137.162349,512.164011 134.829614,512.608341 C132.496879,513.052672 130.358539,513.274837 128.414593,513.274837 C118.805947,513.274837 114.001624,507.942871 114.001624,497.27894 C114.001624,490.613983 116.001111,485.36533 120.000085,481.53298 C123.999059,477.700629 130.094718,475.784454 138.287061,475.784454 C146.479404,475.784454 153.935824,479.783428 160.656323,487.781377 C171.15363,500.22263 176.402284,514.080186 176.402284,529.354046 C176.402284,544.627905 172.708787,556.70814 165.321793,565.594749 C163.600012,567.649778 161.906002,568.677292 160.239763,568.677292 C157.907028,568.677292 155.185504,566.261245 152.075191,561.429151 C147.79851,554.764194 142.883104,551.431716 137.328973,551.431716 C131.774843,551.431716 125.554216,555.819479 118.667094,564.595006 C118.056139,565.372584 117.750662,566.122391 117.750662,566.844429 C117.750662,568.288503 118.50047,569.01054 120.000085,569.01054 C120.777664,569.01054 121.527471,568.566209 122.249508,567.677549 C122.971545,566.788887 123.832435,566.344557 124.832179,566.344557 C127.164914,566.344557 129.914209,568.788374 133.080063,573.676009 C137.356744,580.340966 142.383232,583.673446 148.159528,583.673446 C153.935824,583.673446 160.906259,578.563645 169.070831,568.344043 C183.733736,549.959871 191.065189,532.103341 191.065189,514.774452 C191.065189,500.66696 188.454747,489.253221 183.233864,480.533236 C182.733993,479.700116 182.484057,478.880882 182.484057,478.075533 C182.484057,477.270184 182.872846,476.423179 183.650424,475.534518 C185.427746,473.47949 188.010417,472.451976 191.398437,472.451976 C197.452439,472.451976 202.978799,476.45095 207.977517,484.448898 C215.7533,496.890151 219.641192,511.27535 219.641192,527.604495 C219.641192,543.767015 217.280686,555.486231 212.559675,562.762142 C211.115601,564.983795 209.532674,566.094621 207.810893,566.094621 C206.089113,566.094621 203.86746,564.553349 201.145936,561.470808 C198.424412,558.388265 195.258558,556.846993 191.648373,556.846993 C185.760994,556.846993 179.429285,562.512206 172.653245,573.842633 C172.319997,574.398046 172.153373,574.981231 172.153373,575.592185 C172.153373,577.036258 172.958722,577.758296 174.56942,577.758296 C175.40254,577.758296 176.138462,577.188998 176.777187,576.0504 C177.415912,574.911804 178.374,574.342506 179.65145,574.342506 C181.428772,574.342506 183.69208,575.897662 186.441375,579.007975 C189.19067,582.118288 192.009391,583.673446 194.897539,583.673446 C201.007083,583.673446 208.199683,577.536131 216.475337,565.261502 C229.416462,546.155291 235.887025,525.882714 235.887025,504.443769 C235.887025,497.778812 235.109447,491.697039 233.554289,486.198449 C232.943335,484.08788 232.637858,482.116163 232.637858,480.2833 C232.637858,477.7284 233.193271,475.367894 234.304097,473.201783 C235.69263,470.480259 237.803199,469.119497 240.635806,469.119497 C246.578727,469.119497 251.022031,475.340124 253.96572,487.781377 C256.020749,496.390279 259.436539,501.777786 264.213091,503.943897 C265.657165,504.610393 266.379203,505.33243 266.379203,506.110008 C266.379203,506.887587 265.907102,507.665165 264.9629,508.442743 C250.633242,520.217501 243.468413,533.741809 243.468413,549.015669 C243.468413,564.289529 248.272736,575.314478 257.881383,582.090517 C259.380998,583.145802 260.76953,583.673446 262.046981,583.673446 Z M349.441229,585.756244 C365.60375,585.756244 378.822581,580.868609 389.097722,571.093339 C402.261013,558.652086 408.842657,543.489309 408.842657,525.605007 C408.842657,496.779069 395.679368,476.645344 369.352788,465.203835 C360.466178,461.371485 353.551285,459.45531 348.608109,459.45531 C346.886328,459.45531 345.386713,460.371741 344.109263,462.204604 C339.443793,468.925103 332.612212,474.34038 323.614521,478.450437 C303.897357,487.50367 294.038774,497.820468 294.038774,509.400831 C294.038774,520.981194 301.397997,529.603982 316.116444,535.269195 C326.669293,539.323711 331.945717,542.850584 331.945717,545.849814 C331.945717,546.51631 331.626354,547.196691 330.987629,547.890957 C330.348904,548.585224 330.029542,549.293375 330.029542,550.015412 C330.029542,551.348404 330.779349,552.014899 332.278965,552.014899 C333.223167,552.014899 334.111828,551.570569 334.944948,550.681908 C341.165574,544.072492 344.275887,538.240655 344.275887,533.186396 C344.275887,525.743861 337.99972,519.551005 325.447384,514.607828 C316.171986,510.997643 311.534286,506.554339 311.534286,501.277914 C311.534286,493.44659 316.283068,487.225964 325.780631,482.616035 C329.5019,480.894254 333.33425,480.033364 337.277682,480.033364 C343.609392,480.033364 350.913074,481.838457 359.188729,485.448642 C383.682445,496.112573 395.929303,514.524516 395.929303,540.684473 C395.929303,552.348147 392.9995,560.943165 387.139892,566.469525 C381.280284,571.995885 373.879405,574.759065 364.937254,574.759065 C356.161728,574.759065 345.831044,569.621494 333.945204,559.346352 C328.002284,554.18101 321.601148,551.59834 314.741797,551.59834 C307.882445,551.59834 300.481565,555.291837 292.539159,562.678831 C291.650497,563.51195 291.206167,564.317299 291.206167,565.094878 C291.206167,566.427869 291.955975,567.094365 293.45559,567.094365 C294.233168,567.094365 295.024633,566.733346 295.829982,566.011309 C296.635331,565.289272 297.7045,564.928253 299.037492,564.928253 C303.036466,564.928253 309.298749,568.399585 317.82434,575.342249 C326.34993,582.284912 336.888893,585.756244 349.441229,585.756244 Z M562.469916,583.673446 C563.747366,583.673446 565.024816,583.062491 566.302266,581.840582 L566.302266,581.840582 L582.131539,566.761116 C582.798034,566.150162 583.131283,565.483667 583.131283,564.761629 C583.131283,563.150931 582.381474,562.345583 580.88186,562.345583 C580.326446,562.345583 579.673836,562.706601 578.924028,563.428638 C578.174221,564.150675 577.132821,564.511693 575.79983,564.511693 C572.633976,564.511693 569.426464,561.665202 566.177299,555.972218 C562.928132,550.279234 561.303549,543.517079 561.303549,535.685755 C561.303549,521.744887 569.745827,509.886817 586.630385,500.111547 C587.68567,499.500593 588.213312,498.806326 588.213312,498.028748 C588.213312,496.362509 587.491275,495.529389 586.047201,495.529389 C585.60287,495.529389 585.144655,495.668242 584.672554,495.945949 C584.200452,496.223655 583.770007,496.362509 583.381218,496.362509 C580.9374,496.362509 578.660207,491.946975 576.549637,483.115907 C572.772829,467.342175 564.552715,459.45531 551.889296,459.45531 C541.947403,459.45531 534.865886,463.28766 530.644747,470.95236 C530.033792,472.063186 529.395067,472.6186 528.728571,472.6186 C528.062076,472.6186 527.340038,472.090957 526.56246,471.035672 C520.897247,463.31543 513.635221,459.45531 504.776382,459.45531 C495.917544,459.45531 487.90571,463.73199 480.740881,472.285352 C480.185468,472.951847 479.657825,473.285095 479.157954,473.285095 C478.658082,473.285095 478.13044,472.951847 477.575027,472.285352 C470.299115,463.73199 460.732125,459.45531 448.874056,459.45531 C437.015986,459.45531 427.532308,463.176577 420.42302,470.619112 C413.313733,478.061648 409.759089,486.948257 409.759089,497.27894 C409.759089,518.329096 416.923918,528.854174 431.253575,528.854174 C433.419687,528.854174 435.863504,528.604238 438.585028,528.104366 C441.306553,527.604495 443.667058,527.354559 445.666545,527.354559 C450.831886,527.354559 453.414557,529.048569 453.414557,532.436588 C453.414557,534.491617 454.192136,535.519131 455.747292,535.519131 C457.302449,535.519131 458.080027,534.491617 458.080027,532.436588 C458.080027,518.773427 452.609208,511.941846 441.667571,511.941846 C439.723625,511.941846 437.585285,512.164011 435.25255,512.608341 C432.919815,513.052672 430.781475,513.274837 428.837528,513.274837 C419.228882,513.274837 414.424559,507.942871 414.424559,497.27894 C414.424559,490.613983 416.424046,485.36533 420.42302,481.53298 C424.421994,477.700629 430.517653,475.784454 438.709996,475.784454 C446.902339,475.784454 454.35876,479.783428 461.079258,487.781377 C471.576565,500.22263 476.825218,514.080186 476.825218,529.354046 C476.825218,544.627905 473.131722,556.70814 465.744727,565.594749 C464.022947,567.649778 462.328937,568.677292 460.662699,568.677292 C458.329963,568.677292 455.608439,566.261245 452.498126,561.429151 C448.221445,554.764194 443.30604,551.431716 437.751908,551.431716 C432.197778,551.431716 425.977151,555.819479 419.090029,564.595006 C418.479075,565.372584 418.173597,566.122391 418.173597,566.844429 C418.173597,568.288503 418.923405,569.01054 420.42302,569.01054 C421.200599,569.01054 421.950406,568.566209 422.672444,567.677549 C423.39448,566.788887 424.255371,566.344557 425.255114,566.344557 C427.587849,566.344557 430.337144,568.788374 433.502998,573.676009 C437.779679,580.340966 442.806168,583.673446 448.582463,583.673446 C454.35876,583.673446 461.329194,578.563645 469.493766,568.344043 C484.156671,549.959871 491.488124,532.103341 491.488124,514.774452 C491.488124,500.66696 488.877683,489.253221 483.6568,480.533236 C483.156928,479.700116 482.906992,478.880882 482.906992,478.075533 C482.906992,477.270184 483.295781,476.423179 484.07336,475.534518 C485.850682,473.47949 488.433352,472.451976 491.821372,472.451976 C497.875374,472.451976 503.401735,476.45095 508.400452,484.448898 C516.176235,496.890151 520.064127,511.27535 520.064127,527.604495 C520.064127,543.767015 517.703622,555.486231 512.98261,562.762142 C511.538536,564.983795 509.955609,566.094621 508.233829,566.094621 C506.512048,566.094621 504.290395,564.553349 501.568872,561.470808 C498.847347,558.388265 495.681493,556.846993 492.071308,556.846993 C486.183929,556.846993 479.85222,562.512206 473.07618,573.842633 C472.742933,574.398046 472.576309,574.981231 472.576309,575.592185 C472.576309,577.036258 473.381658,577.758296 474.992356,577.758296 C475.825475,577.758296 476.561398,577.188998 477.200123,576.0504 C477.838847,574.911804 478.796936,574.342506 480.074385,574.342506 C481.851708,574.342506 484.115015,575.897662 486.86431,579.007975 C489.613605,582.118288 492.432326,583.673446 495.320475,583.673446 C501.430019,583.673446 508.622618,577.536131 516.898273,565.261502 C529.839398,546.155291 536.30996,525.882714 536.30996,504.443769 C536.30996,497.778812 535.532381,491.697039 533.977225,486.198449 C533.36627,484.08788 533.060793,482.116163 533.060793,480.2833 C533.060793,477.7284 533.616206,475.367894 534.727032,473.201783 C536.115566,470.480259 538.226135,469.119497 541.058741,469.119497 C547.001662,469.119497 551.444967,475.340124 554.388655,487.781377 C556.443684,496.390279 559.859474,501.777786 564.636027,503.943897 C566.080101,504.610393 566.802137,505.33243 566.802137,506.110008 C566.802137,506.887587 566.330037,507.665165 565.385835,508.442743 C551.056177,520.217501 543.891348,533.741809 543.891348,549.015669 C543.891348,564.289529 548.695671,575.314478 558.304318,582.090517 C559.803933,583.145802 561.192465,583.673446 562.469916,583.673446 Z M702.683948,585.756244 C715.95832,585.756244 728.982758,579.285681 741.757258,566.344557 C752.865519,555.125213 758.419651,540.795555 758.419651,523.355584 C758.419651,496.584674 744.617635,477.089675 717.013605,464.870587 C708.849033,461.260402 699.37924,459.45531 688.604227,459.45531 C672.330623,459.45531 658.667461,464.204091 647.614741,473.701655 C636.562021,483.199219 631.03566,494.640728 631.03566,508.026183 C631.03566,517.856995 633.965465,525.938255 639.825073,532.269964 C645.684681,538.601674 653.446578,541.767528 663.110766,541.767528 C666.776492,541.767528 670.081201,541.267656 673.024889,540.267913 C674.857753,539.656958 675.774184,538.796068 675.774184,537.685242 C675.774184,536.241168 675.052147,535.519131 673.608073,535.519131 C672.997119,535.519131 672.247311,535.657984 671.35865,535.935691 C668.970374,536.713269 666.221079,537.102058 663.110766,537.102058 C656.112561,537.102058 650.127985,534.616585 645.157038,529.645638 C640.186091,524.674691 637.700617,518.773427 637.700617,511.941846 C637.700617,501.999952 641.880101,494.196398 650.239068,488.531184 C658.598035,482.865971 668.498272,480.033364 679.939783,480.033364 C690.214924,480.033364 699.545864,481.893998 707.932602,485.615266 C734.148099,497.223399 747.255848,515.552031 747.255848,540.601161 C747.255848,549.654394 744.312159,557.15247 738.42478,563.09539 C733.703768,567.871943 727.247091,570.260219 719.054749,570.260219 C710.862405,570.260219 700.545608,566.177933 688.104354,558.013361 C683.549967,555.01413 678.245772,553.514515 672.19177,553.514515 C662.638664,553.514515 652.557917,558.541003 641.949528,568.59398 C640.894242,569.593723 640.3666,570.482384 640.3666,571.259963 C640.3666,572.648495 641.060866,573.342762 642.4494,573.342762 C643.393602,573.342762 644.337804,572.870661 645.282007,571.926459 C647.448117,569.87143 650.419577,568.843916 654.196386,568.843916 C659.972682,568.843916 667.304134,571.662637 676.190744,577.30008 C685.077353,582.937523 693.908421,585.756244 702.683948,585.756244 Z M690.270466,554.430946 C690.825879,554.430946 691.464604,554.264322 692.186641,553.931075 C704.294646,547.654907 710.348648,540.517849 710.348648,532.5199 C710.348648,525.799402 706.432986,518.787312 698.601662,511.48363 C690.770337,504.179948 686.854675,498.500849 686.854675,494.446334 C686.854675,492.058057 688.132125,490.169653 690.687025,488.78112 C691.964475,488.114625 692.603201,487.337046 692.603201,486.448385 C692.603201,484.893229 691.881164,484.11565 690.43709,484.11565 C689.881676,484.11565 689.242952,484.282274 688.520914,484.615522 C676.412909,490.89169 670.358906,498.028748 670.358906,506.026696 C670.358906,512.580571 674.274569,519.592661 682.105893,527.062967 C689.937218,534.533273 693.85288,540.212371 693.85288,544.100263 C693.85288,546.488539 692.57543,548.376944 690.02053,549.765476 C688.74308,550.431972 688.104354,551.20955 688.104354,552.098211 C688.104354,553.653368 688.826392,554.430946 690.270466,554.430946 Z M829.234819,585.756244 C841.953778,585.756244 856.005729,580.979692 871.390671,571.426586 C872.557039,570.70455 873.140222,569.982512 873.140222,569.260476 C873.140222,567.538695 872.390415,566.677805 870.890799,566.677805 C870.446469,566.677805 869.835515,566.89997 869.057936,567.3443 C862.726227,570.954486 854.894903,572.759578 845.563963,572.759578 C828.290616,572.759578 814.558028,566.219589 804.366198,553.139611 C794.174368,540.059633 789.078453,524.716347 789.078453,507.109752 C789.078453,497.834353 791.355647,488.78112 795.910034,479.950052 C800.46442,471.118984 807.018295,466.70345 815.571656,466.70345 C820.348209,466.70345 824.319412,468.980644 827.485267,473.535031 C827.874057,474.090444 828.068451,474.645857 828.068451,475.20127 C828.068451,475.756683 827.735203,476.312097 827.068707,476.86751 L827.068707,476.86751 L816.321464,485.615266 C809.545424,491.113855 806.157405,497.195628 806.157405,503.860585 C806.157405,510.525542 810.670136,518.204128 819.695599,526.896343 C828.721061,535.588558 833.233793,542.767272 833.233793,548.432485 C833.233793,552.209294 831.234306,555.347378 827.235332,557.846737 C825.624634,558.846481 824.819285,559.818453 824.819285,560.762655 C824.819285,562.262271 825.569092,563.012078 827.068707,563.012078 C827.513037,563.012078 828.290616,562.678831 829.401442,562.012335 C845.397339,552.403689 853.395287,543.878098 853.395287,536.435563 C853.395287,532.381047 850.562681,527.021311 844.897467,520.356354 C844.342054,519.634317 844.064347,519.106674 844.064347,518.773427 C844.064347,517.21827 844.703073,516.440692 845.980523,516.440692 C846.813643,516.440692 848.174404,517.357123 850.062809,519.189986 C853.728535,522.74463 857.061014,524.521952 860.060244,524.521952 C866.66966,524.521952 872.668121,519.273298 878.055628,508.775991 C878.499959,507.942871 878.722123,507.331917 878.722123,506.943128 C878.722123,505.33243 877.944545,504.527081 876.389389,504.527081 C875.611811,504.527081 874.834232,505.165806 874.056654,506.443256 C873.723406,506.943128 873.251305,507.193064 872.640351,507.193064 C871.029653,507.193064 868.669147,505.693449 865.558834,502.694218 C863.003933,500.194859 860.28241,498.94518 857.394261,498.94518 C852.22892,498.94518 846.869183,503.721732 841.315053,513.274837 C840.870722,513.996874 840.412506,514.357893 839.940406,514.357893 C839.468304,514.357893 838.982317,514.107957 838.482446,513.608085 C829.31813,504.443769 824.735972,496.945692 824.735972,491.113855 C824.735972,487.003798 826.652148,483.338072 830.484498,480.116676 C832.650609,478.339354 834.983343,477.450693 837.482703,477.450693 C839.982061,477.450693 843.10626,479.00585 846.855298,482.116163 C850.604337,485.226476 854.353375,486.781633 858.102414,486.781633 C861.851451,486.781633 868.085963,481.227502 876.805949,470.119241 C877.416903,469.341662 877.72238,468.675167 877.72238,468.119754 C877.72238,466.564597 876.889261,465.787019 875.223022,465.787019 C874.500984,465.787019 873.778947,466.314661 873.056911,467.369946 C872.334873,468.425231 871.085194,468.952873 869.307872,468.952873 C867.53055,468.952873 864.684058,467.369946 860.768396,464.204091 C856.852734,461.038237 853.811847,459.45531 851.645736,459.45531 C849.479625,459.45531 847.618992,460.094035 846.063834,461.371485 L846.063834,461.371485 L834.233536,471.035672 C833.733664,471.424461 833.219907,471.618856 832.692265,471.618856 C832.164622,471.618856 831.678636,471.230067 831.234306,470.452489 C827.068707,463.121036 820.598145,459.45531 811.822618,459.45531 C800.381109,459.45531 790.508642,465.328803 782.205216,477.07579 C773.90179,488.822776 769.750078,503.22186 769.750078,520.273042 C769.750078,537.324223 775.026501,552.514771 785.57935,565.844685 C796.132199,579.119058 810.684022,585.756244 829.234819,585.756244 Z M937.873617,585.756244 C950.370411,585.756244 961.395361,578.147085 970.948465,562.928766 C976.946927,553.431203 979.946158,542.47568 979.946158,530.062197 C979.946158,517.648715 973.919926,508.220578 961.867462,501.777786 C959.145938,500.333712 956.424413,499.611675 953.70289,499.611675 C945.760482,499.611675 938.206865,505.387971 931.042036,516.940563 C930.042292,518.551261 928.181658,519.35661 925.460135,519.35661 C922.73861,519.35661 918.600783,517.856995 913.046652,514.857764 C902.604886,509.192551 897.384003,502.666447 897.384003,495.279453 C897.384003,491.002773 898.828077,486.823289 901.716226,482.741003 C904.604373,478.658717 908.2701,476.617574 912.713404,476.617574 C917.156709,476.617574 922.891349,478.505978 929.917325,482.282787 C936.9433,486.059596 943.150041,487.948001 948.537548,487.948001 C959.923516,487.948001 967.615987,479.922282 971.614961,463.870844 C971.781585,463.204348 971.864898,462.621164 971.864898,462.121292 C971.864898,460.566136 971.11509,459.788557 969.615474,459.788557 C968.449107,459.788557 967.643758,460.649448 967.199428,462.371228 C966.088601,466.70345 963.422619,468.869561 959.20148,468.869561 C954.98034,468.869561 949.912196,467.300519 943.997046,464.162435 C938.081897,461.024352 932.708275,459.45531 927.876182,459.45531 C917.545498,459.45531 907.867425,465.856445 898.841963,478.658717 C889.8165,491.460988 885.303769,502.541479 885.303769,511.90019 C885.303769,521.2589 890.219174,528.493156 900.049986,533.602956 C903.993419,535.657984 907.742458,536.685498 911.297101,536.685498 C919.683838,536.685498 927.515163,531.020285 934.791075,519.689858 C935.790818,518.134702 937.429287,517.357123 939.70648,517.357123 C941.983674,517.357123 945.066217,518.384637 948.954107,520.439666 C963.228224,527.993284 970.365282,536.685498 970.365282,546.51631 C970.365282,552.125982 969.198915,556.819223 966.86618,560.596032 C963.367077,566.150162 957.729635,568.927228 949.953851,568.927228 C942.178068,568.927228 932.291715,564.317299 920.294792,555.097442 C914.907286,550.987385 909.769715,548.932357 904.88208,548.932357 C896.773049,548.932357 889.136119,554.514258 881.97129,565.678061 C881.471419,566.45564 881.221483,567.205447 881.221483,567.927485 C881.221483,569.371558 881.97129,570.093595 883.470906,570.093595 C884.359567,570.093595 885.192686,569.482641 885.970265,568.260732 C887.247714,566.316787 889.330514,565.344813 892.218662,565.344813 C895.106809,565.344813 899.522343,567.622007 905.465264,572.176394 C917.351104,581.229628 928.153887,585.756244 937.873617,585.756244 Z M1036.55664,606.500922 C1049.46999,606.500922 1060.3422,602.585261 1069.17327,594.753936 C1081.39236,583.923381 1087.5019,572.759578 1087.5019,561.262528 C1087.5019,552.375918 1084.01668,543.54485 1077.04625,534.769323 C1070.07582,525.993797 1066.5906,517.384894 1066.5906,508.942615 C1066.5906,500.500336 1072.81122,492.419076 1085.25248,484.698834 C1086.3633,484.032338 1086.91872,483.310301 1086.91872,482.532723 C1086.91872,480.977566 1086.19668,480.199988 1084.75261,480.199988 C1083.97503,480.199988 1083.25299,480.422153 1082.5865,480.866484 C1081.42013,481.644062 1079.94828,482.032851 1078.17096,482.032851 C1073.33887,482.032851 1066.8683,478.269928 1058.75927,470.74408 C1050.65024,463.218233 1040.70835,459.45531 1028.93359,459.45531 C1017.15883,459.45531 1006.93923,463.412628 998.274789,471.327264 C989.610345,479.241901 985.278123,488.683923 985.278123,499.653331 C985.278123,510.62274 988.277353,519.370496 994.275815,525.896599 C1000.27428,532.422703 1007.7307,535.685755 1016.64508,535.685755 C1025.55946,535.685755 1032.54378,533.464103 1037.59804,529.020798 C1038.54224,528.187678 1039.01434,527.4101 1039.01434,526.688063 C1039.01434,525.188448 1038.23676,524.43864 1036.6816,524.43864 C1035.95957,524.43864 1035.12645,524.8552 1034.18224,525.688319 C1030.73868,528.743091 1025.69831,530.270477 1019.06112,530.270477 C1012.42394,530.270477 1006.57821,527.604495 1001.52396,522.272529 C996.469697,516.940563 993.942567,510.358918 993.942567,502.527594 C993.942567,494.69627 996.691862,488.378446 1002.19045,483.574123 C1007.68904,478.769799 1013.96521,476.367638 1021.01896,476.367638 C1028.0727,476.367638 1034.64046,479.228015 1040.72223,484.94877 C1046.80401,490.669525 1053.20514,493.529902 1059.92564,493.529902 C1062.09175,493.529902 1063.17481,493.877035 1063.17481,494.571302 C1063.17481,495.265568 1062.64717,496.084802 1061.59188,497.029004 C1052.42756,505.249118 1047.84541,513.510888 1047.84541,521.814313 C1047.84541,530.117739 1050.51139,537.685242 1055.84336,544.516823 C1066.56283,558.235526 1071.92256,569.371558 1071.92256,577.92492 C1071.92256,583.145802 1070.14524,587.436369 1066.5906,590.796618 C1063.03595,594.156867 1057.37074,595.836991 1049.59496,595.836991 C1041.81918,595.836991 1033.7518,591.35203 1025.39283,582.38211 C1017.03387,573.412188 1009.8135,568.927228 1003.73172,568.927228 C997.64995,568.927228 990.443465,572.565184 982.112269,579.841095 C981.223607,580.618673 980.779278,581.312939 980.779278,581.923894 C980.779278,583.534592 981.584627,584.339941 983.195325,584.339941 C983.806279,584.339941 984.556086,583.951151 985.444748,583.173573 C986.333408,582.395995 987.388693,582.007206 988.610602,582.007206 C992.165245,582.007206 997.816573,586.089492 1005.56459,594.254064 C1013.3126,602.418637 1023.64328,606.500922 1036.55664,606.500922 Z M1153.6516,585.756244 C1164.98202,585.756244 1174.81284,582.59039 1183.14404,576.25868 C1183.58836,575.925433 1184.00493,575.758809 1184.39371,575.758809 C1185.06021,575.758809 1185.64339,576.230909 1186.14326,577.175112 C1188.36492,581.507334 1192.39166,583.673446 1198.2235,583.673446 C1201.77814,583.673446 1205.05508,582.146059 1208.05431,579.091287 L1208.05431,579.091287 L1217.88512,569.093852 C1218.55162,568.427356 1218.88486,567.73309 1218.88486,567.011052 C1218.88486,565.566978 1218.16283,564.844942 1216.71875,564.844942 C1215.88564,564.844942 1215.08029,565.233731 1214.3027,566.011309 C1211.96997,568.344043 1210.02602,569.510412 1208.47087,569.510412 C1204.02757,569.510412 1201.80592,565.289272 1201.80592,556.846993 L1201.80592,556.846993 L1201.80592,531.686781 C1201.80592,525.188448 1205.4161,518.745656 1212.63647,512.358405 C1213.58067,511.525286 1214.05277,510.664396 1214.05277,509.775735 C1214.05277,508.442743 1213.38627,507.776248 1212.05328,507.776248 C1211.27571,507.776248 1210.49813,508.081725 1209.72055,508.692679 C1199.61203,516.635086 1189.69791,521.855969 1179.97818,524.355328 C1178.47856,524.744117 1177.72875,525.674434 1177.72875,527.146279 C1177.72875,528.618123 1178.60353,529.354046 1180.35308,529.354046 C1182.10263,529.354046 1182.97741,530.353789 1182.97741,532.353276 L1182.97741,532.353276 L1182.97741,558.346609 C1182.97741,561.623546 1183.11626,564.456153 1183.39397,566.844429 C1183.44951,567.177676 1183.47728,567.483154 1183.47728,567.76086 C1183.47728,569.371558 1182.83855,570.621237 1181.5611,571.509899 C1176.11805,575.508873 1169.1754,577.50836 1160.73312,577.50836 C1143.95964,577.50836 1131.29622,565.233731 1122.74286,540.684473 C1120.41012,533.963974 1119.24376,525.493925 1119.24376,515.274324 C1119.24376,497.27894 1121.89585,484.50444 1127.20005,476.950822 C1132.50424,469.397204 1139.32195,465.620395 1147.65313,465.620395 C1153.42943,465.620395 1157.67834,468.091983 1160.39987,473.035159 C1160.67757,473.535031 1160.81642,474.007132 1160.81642,474.451463 C1160.81642,475.117958 1160.3721,475.701142 1159.48343,476.201014 L1159.48343,476.201014 L1158.23376,476.86751 C1140.34945,486.420615 1131.40731,496.723527 1131.40731,507.776248 C1131.40731,514.774452 1135.05914,522.216988 1142.36282,530.103853 C1149.66651,537.990719 1153.31835,544.766759 1153.31835,550.431972 C1153.31835,555.097442 1150.76345,558.707627 1145.65365,561.262528 C1144.09849,562.040106 1143.32092,562.900995 1143.32092,563.845198 C1143.32092,565.344813 1144.01519,566.094621 1145.40371,566.094621 C1146.18129,566.094621 1147.04219,565.844685 1147.98638,565.344813 C1163.42686,557.235782 1171.14711,548.293632 1171.14711,538.518362 C1171.14711,531.353533 1167.52304,523.883227 1160.2749,516.107444 C1153.02675,508.331661 1149.40268,501.513965 1149.40268,495.654357 C1149.40268,489.794749 1153.23504,484.809917 1160.89974,480.69986 C1163.06585,479.533492 1165.14865,478.950309 1167.14814,478.950309 C1170.75832,478.950309 1174.0908,480.880369 1177.14557,484.74049 C1180.20035,488.600611 1183.8383,490.530671 1188.05943,490.530671 C1193.94682,490.530671 1200.97279,486.892716 1209.13736,479.616804 C1210.1371,478.728143 1210.63698,477.867253 1210.63698,477.034134 C1210.63698,475.645601 1209.94271,474.951334 1208.55418,474.951334 C1207.77661,474.951334 1206.97126,475.312353 1206.13813,476.03439 C1205.30501,476.756427 1204.41636,477.117446 1203.47215,477.117446 C1201.13942,477.117446 1198.2235,474.909678 1194.72439,470.494145 C1191.22529,466.078611 1187.83728,463.870844 1184.56034,463.870844 C1183.33843,463.870844 1182.08874,464.204091 1180.81129,464.870587 L1180.81129,464.870587 L1167.64801,471.868792 C1167.20368,472.090957 1166.81489,472.20204 1166.48164,472.20204 C1165.70407,472.20204 1165.06534,471.757709 1164.56546,470.869048 C1160.34432,463.259889 1153.81823,459.45531 1144.98715,459.45531 C1132.15711,459.45531 1121.03496,465.453771 1111.62071,477.450693 C1102.20647,489.447616 1097.49934,504.8881 1097.49934,523.772144 C1097.49934,532.381047 1098.55462,539.74027 1100.66519,545.849814 C1109.82951,572.454101 1127.49164,585.756244 1153.6516,585.756244 Z M1322.10838,583.673446 C1323.44137,583.673446 1324.69106,583.229115 1325.85742,582.340454 L1325.85742,582.340454 L1343.43624,569.177163 C1344.49154,568.399585 1345.01918,567.538695 1345.01918,566.594493 C1345.01918,565.150418 1344.38045,564.428382 1343.103,564.428382 C1342.4365,564.428382 1341.64504,564.761629 1340.72861,565.428125 C1339.81217,566.094621 1338.9374,566.427869 1338.10428,566.427869 C1335.77155,566.427869 1333.24442,564.317299 1330.5229,560.096159 C1326.74608,554.264322 1324.85768,546.405227 1324.85768,536.518874 C1324.85768,518.634573 1331.85589,505.554595 1345.85229,497.27894 C1347.0742,496.556903 1347.68516,495.751554 1347.68516,494.862893 C1347.68516,493.307737 1347.01866,492.530158 1345.68567,492.530158 C1345.13026,492.530158 1344.53319,492.710668 1343.89447,493.071686 C1343.25574,493.432705 1342.71421,493.613214 1342.26988,493.613214 C1339.71498,493.613214 1337.41001,489.364304 1335.35499,480.866484 C1331.91143,466.592368 1323.10813,459.45531 1308.94509,459.45531 C1300.50282,459.45531 1292.33825,465.537083 1284.45138,477.700629 C1283.72934,478.811455 1282.99342,479.366868 1282.24361,479.366868 C1281.4938,479.366868 1280.73011,478.755914 1279.95253,477.534005 C1271.89904,465.481541 1261.09626,459.45531 1247.54418,459.45531 C1237.60228,459.45531 1229.61822,462.523967 1223.59199,468.661281 C1217.56576,474.798596 1214.55265,481.796801 1214.55265,489.655896 C1214.55265,497.514991 1216.88538,503.832815 1221.55084,508.609367 C1226.27186,513.330378 1231.81211,515.690884 1238.17159,515.690884 C1244.53106,515.690884 1249.57144,514.24681 1253.2927,511.358662 C1254.29245,510.581084 1254.79232,509.803505 1254.79232,509.025927 C1254.79232,507.526312 1254.04251,506.776504 1252.5429,506.776504 C1251.82086,506.776504 1251.07106,507.054211 1250.29347,507.609624 C1247.73857,509.442487 1244.29502,510.358918 1239.96279,510.358918 C1235.63057,510.358918 1232.0065,508.775991 1229.09058,505.610137 C1226.17467,502.444282 1224.7167,498.667473 1224.7167,494.27971 C1224.7167,489.891946 1226.24409,486.045711 1229.29886,482.741003 C1232.35363,479.436295 1236.547,477.783941 1241.87897,477.783941 C1248.87717,477.783941 1254.6257,480.949796 1259.12455,487.281505 C1265.45625,496.279197 1268.62211,505.499054 1268.62211,514.941076 C1268.62211,532.880919 1257.6527,551.265092 1235.71388,570.093595 C1234.9363,570.760091 1234.54752,571.482128 1234.54752,572.259706 C1234.54752,573.814862 1235.29733,574.592442 1236.79693,574.592442 C1237.46343,574.592442 1238.28267,574.161996 1239.25464,573.301106 C1240.22661,572.440215 1241.51795,572.00977 1243.12865,572.00977 C1245.79463,572.00977 1248.82163,573.648239 1252.20965,576.925176 C1256.81958,581.424022 1261.37396,583.673446 1265.87281,583.673446 C1273.03764,583.673446 1279.98031,578.397021 1286.7008,567.844172 C1287.08959,567.233218 1287.28399,566.594493 1287.28399,565.927997 C1287.28399,564.539464 1286.56195,563.845198 1285.11787,563.845198 C1284.22922,563.845198 1283.35444,564.497809 1282.49354,565.803029 C1281.63266,567.10825 1280.45241,567.76086 1278.95279,567.76086 C1276.50898,567.76086 1273.28758,565.816914 1269.2886,561.929023 C1266.45599,559.207499 1263.15129,557.846737 1259.37448,557.846737 C1257.70824,557.846737 1256.87512,557.624572 1256.87512,557.180241 C1256.87512,556.735911 1257.26391,556.097186 1258.04149,555.264066 C1277.36986,534.769323 1287.03405,516.38515 1287.03405,500.111547 C1287.03405,497.556647 1286.82577,495.279453 1286.40921,493.279966 C1285.99265,491.280479 1285.78437,489.697552 1285.78437,488.531184 C1285.78437,485.698578 1286.61749,482.977054 1288.28373,480.366612 C1291.61621,475.145729 1296.08728,472.535288 1301.69695,472.535288 C1307.30663,472.535288 1311.11121,476.756427 1313.11069,485.198706 C1315.44342,495.029517 1319.77565,500.66696 1326.10736,502.111034 C1327.32926,502.388741 1327.94022,502.805301 1327.94022,503.360714 C1327.94022,503.916127 1327.63475,504.47154 1327.02379,505.026953 C1313.08293,517.690371 1306.11249,533.686268 1306.11249,553.014643 C1306.11249,564.511693 1310.08369,574.064799 1318.0261,581.673957 C1319.41463,583.006949 1320.77539,583.673446 1322.10838,583.673446 Z" id="MOMDESIGN"></path>
        </g>
    </g>
</svg>