<?xml version="1.0" encoding="UTF-8"?>
<svg width="1249px" height="149px" viewBox="0 0 1249 149" version="1.1" xmlns="http://www.w3.org/2000/svg" xmlns:xlink="http://www.w3.org/1999/xlink">
    <title>MOMDESIGN</title>
    <g id="Design" stroke="none" stroke-width="1" fill="none" fill-rule="evenodd">
        <path d="M154.282227,125.679688 C155.569987,125.679688 156.857747,125.063802 158.145508,123.832031 L158.145508,123.832031 L174.102539,108.630859 C174.774414,108.014974 175.110352,107.343099 175.110352,106.615234 C175.110352,104.991536 174.354492,104.179688 172.842773,104.179688 C172.282878,104.179688 171.625,104.54362 170.869141,105.271484 C170.113281,105.999349 169.063477,106.363281 167.719727,106.363281 C164.52832,106.363281 161.294922,103.493815 158.019531,97.7548828 C154.744141,92.0159505 153.106445,85.1992188 153.106445,77.3046875 C153.106445,63.2513021 161.616862,51.297526 178.637695,41.4433594 C179.701497,40.827474 180.233398,40.1276042 180.233398,39.34375 C180.233398,37.6640625 179.505534,36.8242188 178.049805,36.8242188 C177.601888,36.8242188 177.139974,36.9641927 176.664062,37.2441406 C176.188151,37.5240885 175.754232,37.6640625 175.362305,37.6640625 C172.898763,37.6640625 170.60319,33.2128906 168.475586,24.3105469 C164.668294,8.40950521 156.381836,0.458984375 143.616211,0.458984375 C133.594076,0.458984375 126.455404,4.32226562 122.200195,12.0488281 C121.58431,13.1686198 120.94043,13.7285156 120.268555,13.7285156 C119.59668,13.7285156 118.868815,13.1966146 118.084961,12.1328125 C112.374023,4.35026042 105.053385,0.458984375 96.1230469,0.458984375 C87.1927083,0.458984375 79.1162109,4.77018229 71.8935547,13.3925781 C71.3336589,14.0644531 70.8017578,14.4003906 70.2978516,14.4003906 C69.7939453,14.4003906 69.2620443,14.0644531 68.7021484,13.3925781 C61.367513,4.77018229 51.7233073,0.458984375 39.7695312,0.458984375 C27.8157552,0.458984375 18.2555339,4.21028646 11.0888672,11.7128906 C3.92220052,19.2154948 0.338867188,28.1738281 0.338867188,38.5878906 C0.338867188,59.8079427 7.56152344,70.4179688 22.0068359,70.4179688 C24.1904297,70.4179688 26.6539714,70.1660156 29.3974609,69.6621094 C32.1409505,69.1582031 34.5205078,68.90625 36.5361328,68.90625 C41.7431641,68.90625 44.3466797,70.6139323 44.3466797,74.0292969 C44.3466797,76.1009115 45.1305339,77.1367188 46.6982422,77.1367188 C48.2659505,77.1367188 49.0498047,76.1009115 49.0498047,74.0292969 C49.0498047,60.2558594 43.5348307,53.3691406 32.5048828,53.3691406 C30.5452474,53.3691406 28.3896484,53.593099 26.0380859,54.0410156 C23.6865234,54.4889323 21.5309245,54.7128906 19.5712891,54.7128906 C9.88509115,54.7128906 5.04199219,49.3378906 5.04199219,38.5878906 C5.04199219,31.8691406 7.05761719,26.578125 11.0888672,22.7148438 C15.1201172,18.8515625 21.264974,16.9199219 29.5234375,16.9199219 C37.781901,16.9199219 45.2985026,20.9511719 52.0732422,29.0136719 C62.6552734,41.5553385 67.9462891,55.5247396 67.9462891,70.921875 C67.9462891,86.3190104 64.2229818,98.4967448 56.7763672,107.455078 C55.0406901,109.526693 53.3330078,110.5625 51.6533203,110.5625 C49.3017578,110.5625 46.5582682,108.126953 43.4228516,103.255859 C39.1116536,96.5371094 34.1565755,93.1777344 28.5576172,93.1777344 C22.9586589,93.1777344 16.6878255,97.6009115 9.74511719,106.447266 C9.12923177,107.23112 8.82128906,107.986979 8.82128906,108.714844 C8.82128906,110.170573 9.57714844,110.898438 11.0888672,110.898438 C11.8727214,110.898438 12.6285807,110.450521 13.3564453,109.554688 C14.0843099,108.658854 14.9521484,108.210938 15.9599609,108.210938 C18.3115234,108.210938 21.0830078,110.674479 24.2744141,115.601562 C28.585612,122.320312 33.6526693,125.679688 39.4755859,125.679688 C45.2985026,125.679688 52.3251953,120.528646 60.5556641,110.226562 C75.3369141,91.6940104 82.7275391,73.6933594 82.7275391,56.2246094 C82.7275391,42.0032552 80.0960286,30.4973958 74.8330078,21.7070312 C74.3291016,20.8671875 74.0771484,20.0413411 74.0771484,19.2294922 C74.0771484,18.4176432 74.4690755,17.5638021 75.2529297,16.6679688 C77.0445964,14.5963542 79.648112,13.5605469 83.0634766,13.5605469 C89.1663411,13.5605469 94.7373047,17.5917969 99.7763672,25.6542969 C107.614909,38.1959635 111.53418,52.6972656 111.53418,69.1582031 C111.53418,85.4511719 109.154622,97.264974 104.395508,104.599609 C102.939779,106.839193 101.344076,107.958984 99.6083984,107.958984 C97.8727214,107.958984 95.633138,106.405273 92.8896484,103.297852 C90.1461589,100.19043 86.9547526,98.6367188 83.3154297,98.6367188 C77.3805339,98.6367188 70.9977214,104.347656 64.1669922,115.769531 C63.8310547,116.329427 63.6630859,116.917318 63.6630859,117.533203 C63.6630859,118.988932 64.4749349,119.716797 66.0986328,119.716797 C66.9384766,119.716797 67.6803385,119.142904 68.3242188,117.995117 C68.968099,116.847331 69.9339193,116.273438 71.2216797,116.273438 C73.0133464,116.273438 75.2949219,117.841146 78.0664062,120.976562 C80.8378906,124.111979 83.679362,125.679688 86.5908203,125.679688 C92.7496745,125.679688 100.000326,119.492839 108.342773,107.119141 C121.388346,87.858724 127.911133,67.422526 127.911133,45.8105469 C127.911133,39.0917969 127.127279,32.9609375 125.55957,27.4179688 C124.943685,25.2903646 124.635742,23.3027344 124.635742,21.4550781 C124.635742,18.8795573 125.195638,16.5 126.31543,14.3164062 C127.715169,11.5729167 129.842773,10.2011719 132.698242,10.2011719 C138.689128,10.2011719 143.168294,16.4720052 146.135742,29.0136719 C148.207357,37.6920573 151.650716,43.1230469 156.46582,45.3066406 C157.921549,45.9785156 158.649414,46.7063802 158.649414,47.4902344 C158.649414,48.2740885 158.173503,49.0579427 157.22168,49.8417969 C142.776367,61.7115885 135.553711,75.3450521 135.553711,90.7421875 C135.553711,106.139323 140.39681,117.253255 150.083008,124.083984 C151.594727,125.147786 152.994466,125.679688 154.282227,125.679688 Z M242.381836,127.779297 C258.674805,127.779297 272.000326,122.852214 282.358398,112.998047 C295.62793,100.45638 302.262695,85.171224 302.262695,67.1425781 C302.262695,38.0839844 288.993164,17.7877604 262.454102,6.25390625 C253.495768,2.390625 246.525065,0.458984375 241.541992,0.458984375 C239.806315,0.458984375 238.294596,1.3828125 237.006836,3.23046875 C232.303711,10.0052083 225.416992,15.4641927 216.34668,19.6074219 C196.470378,28.733724 186.532227,39.1337891 186.532227,50.8076172 C186.532227,62.4814453 193.950846,71.1738281 208.788086,76.8847656 C219.426107,80.9720052 224.745117,84.5273438 224.745117,87.5507812 C224.745117,88.2226562 224.423177,88.9085286 223.779297,89.6083984 C223.135417,90.3082682 222.813477,91.0221354 222.813477,91.75 C222.813477,93.09375 223.569336,93.765625 225.081055,93.765625 C226.032878,93.765625 226.928711,93.3177083 227.768555,92.421875 C234.039388,85.7591146 237.174805,79.8802083 237.174805,74.7851562 C237.174805,67.2825521 230.847982,61.0397135 218.194336,56.0566406 C208.844076,52.4173177 204.168945,47.938151 204.168945,42.6191406 C204.168945,34.7246094 208.956055,28.453776 218.530273,23.8066406 C222.281576,22.0709635 226.144857,21.203125 230.120117,21.203125 C236.50293,21.203125 243.86556,23.0227865 252.208008,26.6621094 C276.899414,37.4121094 289.245117,55.9726562 289.245117,82.34375 C289.245117,94.1015625 286.291667,102.765951 280.384766,108.336914 C274.477865,113.907878 267.017253,116.693359 258.00293,116.693359 C249.156576,116.693359 238.742513,111.514323 226.760742,101.15625 C220.769857,95.9492188 214.317057,93.3457031 207.402344,93.3457031 C200.48763,93.3457031 193.027018,97.0690104 185.020508,104.515625 C184.124674,105.355469 183.676758,106.167318 183.676758,106.951172 C183.676758,108.294922 184.432617,108.966797 185.944336,108.966797 C186.72819,108.966797 187.526042,108.602865 188.337891,107.875 C189.14974,107.147135 190.227539,106.783203 191.571289,106.783203 C195.602539,106.783203 201.915365,110.282552 210.509766,117.28125 C219.104167,124.279948 229.72819,127.779297 242.381836,127.779297 Z M457.129883,125.679688 C458.417643,125.679688 459.705404,125.063802 460.993164,123.832031 L460.993164,123.832031 L476.950195,108.630859 C477.62207,108.014974 477.958008,107.343099 477.958008,106.615234 C477.958008,104.991536 477.202148,104.179688 475.69043,104.179688 C475.130534,104.179688 474.472656,104.54362 473.716797,105.271484 C472.960938,105.999349 471.911133,106.363281 470.567383,106.363281 C467.375977,106.363281 464.142578,103.493815 460.867188,97.7548828 C457.591797,92.0159505 455.954102,85.1992188 455.954102,77.3046875 C455.954102,63.2513021 464.464518,51.297526 481.485352,41.4433594 C482.549154,40.827474 483.081055,40.1276042 483.081055,39.34375 C483.081055,37.6640625 482.35319,36.8242188 480.897461,36.8242188 C480.449544,36.8242188 479.98763,36.9641927 479.511719,37.2441406 C479.035807,37.5240885 478.601888,37.6640625 478.209961,37.6640625 C475.746419,37.6640625 473.450846,33.2128906 471.323242,24.3105469 C467.515951,8.40950521 459.229492,0.458984375 446.463867,0.458984375 C436.441732,0.458984375 429.30306,4.32226562 425.047852,12.0488281 C424.431966,13.1686198 423.788086,13.7285156 423.116211,13.7285156 C422.444336,13.7285156 421.716471,13.1966146 420.932617,12.1328125 C415.22168,4.35026042 407.901042,0.458984375 398.970703,0.458984375 C390.040365,0.458984375 381.963867,4.77018229 374.741211,13.3925781 C374.181315,14.0644531 373.649414,14.4003906 373.145508,14.4003906 C372.641602,14.4003906 372.109701,14.0644531 371.549805,13.3925781 C364.215169,4.77018229 354.570964,0.458984375 342.617188,0.458984375 C330.663411,0.458984375 321.10319,4.21028646 313.936523,11.7128906 C306.769857,19.2154948 303.186523,28.1738281 303.186523,38.5878906 C303.186523,59.8079427 310.40918,70.4179688 324.854492,70.4179688 C327.038086,70.4179688 329.501628,70.1660156 332.245117,69.6621094 C334.988607,69.1582031 337.368164,68.90625 339.383789,68.90625 C344.59082,68.90625 347.194336,70.6139323 347.194336,74.0292969 C347.194336,76.1009115 347.97819,77.1367188 349.545898,77.1367188 C351.113607,77.1367188 351.897461,76.1009115 351.897461,74.0292969 C351.897461,60.2558594 346.382487,53.3691406 335.352539,53.3691406 C333.392904,53.3691406 331.237305,53.593099 328.885742,54.0410156 C326.53418,54.4889323 324.378581,54.7128906 322.418945,54.7128906 C312.732747,54.7128906 307.889648,49.3378906 307.889648,38.5878906 C307.889648,31.8691406 309.905273,26.578125 313.936523,22.7148438 C317.967773,18.8515625 324.11263,16.9199219 332.371094,16.9199219 C340.629557,16.9199219 348.146159,20.9511719 354.920898,29.0136719 C365.50293,41.5553385 370.793945,55.5247396 370.793945,70.921875 C370.793945,86.3190104 367.070638,98.4967448 359.624023,107.455078 C357.888346,109.526693 356.180664,110.5625 354.500977,110.5625 C352.149414,110.5625 349.405924,108.126953 346.270508,103.255859 C341.95931,96.5371094 337.004232,93.1777344 331.405273,93.1777344 C325.806315,93.1777344 319.535482,97.6009115 312.592773,106.447266 C311.976888,107.23112 311.668945,107.986979 311.668945,108.714844 C311.668945,110.170573 312.424805,110.898438 313.936523,110.898438 C314.720378,110.898438 315.476237,110.450521 316.204102,109.554688 C316.931966,108.658854 317.799805,108.210938 318.807617,108.210938 C321.15918,108.210938 323.930664,110.674479 327.12207,115.601562 C331.433268,122.320312 336.500326,125.679688 342.323242,125.679688 C348.146159,125.679688 355.172852,120.528646 363.40332,110.226562 C378.18457,91.6940104 385.575195,73.6933594 385.575195,56.2246094 C385.575195,42.0032552 382.943685,30.4973958 377.680664,21.7070312 C377.176758,20.8671875 376.924805,20.0413411 376.924805,19.2294922 C376.924805,18.4176432 377.316732,17.5638021 378.100586,16.6679688 C379.892253,14.5963542 382.495768,13.5605469 385.911133,13.5605469 C392.013997,13.5605469 397.584961,17.5917969 402.624023,25.6542969 C410.462565,38.1959635 414.381836,52.6972656 414.381836,69.1582031 C414.381836,85.4511719 412.002279,97.264974 407.243164,104.599609 C405.787435,106.839193 404.191732,107.958984 402.456055,107.958984 C400.720378,107.958984 398.480794,106.405273 395.737305,103.297852 C392.993815,100.19043 389.802409,98.6367188 386.163086,98.6367188 C380.22819,98.6367188 373.845378,104.347656 367.014648,115.769531 C366.678711,116.329427 366.510742,116.917318 366.510742,117.533203 C366.510742,118.988932 367.322591,119.716797 368.946289,119.716797 C369.786133,119.716797 370.527995,119.142904 371.171875,117.995117 C371.815755,116.847331 372.781576,116.273438 374.069336,116.273438 C375.861003,116.273438 378.142578,117.841146 380.914062,120.976562 C383.685547,124.111979 386.527018,125.679688 389.438477,125.679688 C395.597331,125.679688 402.847982,119.492839 411.19043,107.119141 C424.236003,87.858724 430.758789,67.422526 430.758789,45.8105469 C430.758789,39.0917969 429.974935,32.9609375 428.407227,27.4179688 C427.791341,25.2903646 427.483398,23.3027344 427.483398,21.4550781 C427.483398,18.8795573 428.043294,16.5 429.163086,14.3164062 C430.562826,11.5729167 432.69043,10.2011719 435.545898,10.2011719 C441.536784,10.2011719 446.015951,16.4720052 448.983398,29.0136719 C451.055013,37.6920573 454.498372,43.1230469 459.313477,45.3066406 C460.769206,45.9785156 461.49707,46.7063802 461.49707,47.4902344 C461.49707,48.2740885 461.021159,49.0579427 460.069336,49.8417969 C445.624023,61.7115885 438.401367,75.3450521 438.401367,90.7421875 C438.401367,106.139323 443.244466,117.253255 452.930664,124.083984 C454.442383,125.147786 455.842122,125.679688 457.129883,125.679688 Z M598.475586,127.779297 C611.857096,127.779297 624.986654,121.25651 637.864258,108.210938 C649.062174,96.9010417 654.661133,82.4557292 654.661133,64.875 C654.661133,37.8880208 640.747721,18.2356771 612.920898,5.91796875 C604.69043,2.27864583 595.144206,0.458984375 584.282227,0.458984375 C567.877279,0.458984375 554.103841,5.24609375 542.961914,14.8203125 C531.819987,24.3945312 526.249023,35.9283854 526.249023,49.421875 C526.249023,59.3320312 529.202474,67.4785156 535.109375,73.8613281 C541.016276,80.2441406 548.84082,83.4355469 558.583008,83.4355469 C562.27832,83.4355469 565.609701,82.9316406 568.577148,81.9238281 C570.424805,81.3079427 571.348633,80.4401042 571.348633,79.3203125 C571.348633,77.8645833 570.620768,77.1367188 569.165039,77.1367188 C568.549154,77.1367188 567.793294,77.2766927 566.897461,77.5566406 C564.489909,78.3404948 561.718424,78.7324219 558.583008,78.7324219 C551.52832,78.7324219 545.495443,76.226888 540.484375,71.2158203 C535.473307,66.2047526 532.967773,60.2558594 532.967773,53.3691406 C532.967773,43.3470052 537.18099,35.4804688 545.607422,29.7695312 C554.033854,24.0585938 564.013997,21.203125 575.547852,21.203125 C585.905924,21.203125 595.312174,23.078776 603.766602,26.8300781 C630.193685,38.531901 643.407227,57.0084635 643.407227,82.2597656 C643.407227,91.3860677 640.439779,98.9446615 634.504883,104.935547 C629.745768,109.750651 623.236979,112.158203 614.978516,112.158203 C606.720052,112.158203 596.319987,108.042969 583.77832,99.8125 C579.187174,96.7890625 573.840169,95.2773438 567.737305,95.2773438 C558.107096,95.2773438 547.944987,100.344401 537.250977,110.478516 C536.187174,111.486328 535.655273,112.382161 535.655273,113.166016 C535.655273,114.565755 536.355143,115.265625 537.754883,115.265625 C538.706706,115.265625 539.658529,114.789714 540.610352,113.837891 C542.793945,111.766276 545.789388,110.730469 549.59668,110.730469 C555.419596,110.730469 562.810221,113.57194 571.768555,119.254883 C580.726888,124.937826 589.629232,127.779297 598.475586,127.779297 Z M585.961914,96.2011719 C586.52181,96.2011719 587.16569,96.0332031 587.893555,95.6972656 C600.099284,89.3704427 606.202148,82.1757812 606.202148,74.1132812 C606.202148,67.3385417 602.254883,60.2698568 594.360352,52.9072266 C586.46582,45.5445964 582.518555,39.8196615 582.518555,35.7324219 C582.518555,33.3248698 583.806315,31.421224 586.381836,30.0214844 C587.669596,29.3496094 588.313477,28.5657552 588.313477,27.6699219 C588.313477,26.1022135 587.585612,25.3183594 586.129883,25.3183594 C585.569987,25.3183594 584.926107,25.4863281 584.198242,25.8222656 C571.992513,32.1490885 565.889648,39.34375 565.889648,47.40625 C565.889648,54.0130208 569.836914,61.0817057 577.731445,68.6123047 C585.625977,76.1429036 589.573242,81.8678385 589.573242,85.7871094 C589.573242,88.1946615 588.285482,90.0983073 585.709961,91.4980469 C584.422201,92.1699219 583.77832,92.953776 583.77832,93.8496094 C583.77832,95.4173177 584.506185,96.2011719 585.961914,96.2011719 Z M726.047852,127.779297 C738.869466,127.779297 753.034831,122.964193 768.543945,113.333984 C769.719727,112.60612 770.307617,111.878255 770.307617,111.150391 C770.307617,109.414714 769.551758,108.546875 768.040039,108.546875 C767.592122,108.546875 766.976237,108.770833 766.192383,109.21875 C759.80957,112.858073 751.915039,114.677734 742.508789,114.677734 C725.096029,114.677734 711.252604,108.084961 700.978516,94.8994141 C690.704427,81.7138672 685.567383,66.2467448 685.567383,48.4980469 C685.567383,39.1477865 687.862956,30.0214844 692.454102,21.1191406 C697.045247,12.2167969 703.652018,7.765625 712.274414,7.765625 C717.089518,7.765625 721.092773,10.0611979 724.28418,14.6523438 C724.676107,15.2122396 724.87207,15.7721354 724.87207,16.3320312 C724.87207,16.8919271 724.536133,17.4518229 723.864258,18.0117188 L723.864258,18.0117188 L713.030273,26.8300781 C706.199544,32.3730469 702.78418,38.5039062 702.78418,45.2226562 C702.78418,51.9414062 707.333333,59.6819661 716.431641,68.4443359 C725.529948,77.2067057 730.079102,84.4433594 730.079102,90.1542969 C730.079102,93.9615885 728.063477,97.125 724.032227,99.6445312 C722.408529,100.652344 721.59668,101.632161 721.59668,102.583984 C721.59668,104.095703 722.352539,104.851562 723.864258,104.851562 C724.312174,104.851562 725.096029,104.515625 726.21582,103.84375 C742.34082,94.1575521 750.40332,85.563151 750.40332,78.0605469 C750.40332,73.9733073 747.547852,68.5703125 741.836914,61.8515625 C741.277018,61.1236979 740.99707,60.5917969 740.99707,60.2558594 C740.99707,58.688151 741.640951,57.9042969 742.928711,57.9042969 C743.768555,57.9042969 745.140299,58.828125 747.043945,60.6757812 C750.739258,64.2591146 754.098633,66.0507812 757.12207,66.0507812 C763.784831,66.0507812 769.831706,60.7597656 775.262695,50.1777344 C775.710612,49.3378906 775.93457,48.7220052 775.93457,48.3300781 C775.93457,46.7063802 775.150716,45.8945312 773.583008,45.8945312 C772.799154,45.8945312 772.015299,46.5384115 771.231445,47.8261719 C770.895508,48.3300781 770.419596,48.5820312 769.803711,48.5820312 C768.180013,48.5820312 765.800456,47.0703125 762.665039,44.046875 C760.089518,41.5273438 757.346029,40.2675781 754.43457,40.2675781 C749.227539,40.2675781 743.824544,45.0826823 738.225586,54.7128906 C737.777669,55.4407552 737.315755,55.8046875 736.839844,55.8046875 C736.363932,55.8046875 735.874023,55.5527344 735.370117,55.0488281 C726.131836,45.8105469 721.512695,38.2519531 721.512695,32.3730469 C721.512695,28.2298177 723.444336,24.5345052 727.307617,21.2871094 C729.491211,19.4954427 731.842773,18.5996094 734.362305,18.5996094 C736.881836,18.5996094 740.03125,20.1673177 743.810547,23.3027344 C747.589844,26.438151 751.369141,28.0058594 755.148438,28.0058594 C758.927734,28.0058594 765.212565,22.406901 774.00293,11.2089844 C774.618815,10.4251302 774.926758,9.75325521 774.926758,9.19335938 C774.926758,7.62565104 774.086914,6.84179688 772.407227,6.84179688 C771.679362,6.84179688 770.951497,7.37369792 770.223633,8.4375 C769.495768,9.50130208 768.236003,10.0332031 766.444336,10.0332031 C764.652669,10.0332031 761.783203,8.4375 757.835938,5.24609375 C753.888672,2.0546875 750.823242,0.458984375 748.639648,0.458984375 C746.456055,0.458984375 744.580404,1.10286458 743.012695,2.390625 L743.012695,2.390625 L731.086914,12.1328125 C730.583008,12.5247396 730.065104,12.7207031 729.533203,12.7207031 C729.001302,12.7207031 728.511393,12.328776 728.063477,11.5449219 C723.864258,4.15429688 717.341471,0.458984375 708.495117,0.458984375 C696.961263,0.458984375 687.009115,6.37988281 678.638672,18.2216797 C670.268229,30.0634766 666.083008,44.578776 666.083008,61.7675781 C666.083008,78.9563802 671.402018,94.2695312 682.040039,107.707031 C692.67806,121.088542 707.347331,127.779297 726.047852,127.779297 Z M835.563477,127.779297 C848.161133,127.779297 859.275065,120.108724 868.905273,104.767578 C874.952148,95.1933594 877.975586,84.1494141 877.975586,71.6357422 C877.975586,59.1220703 871.900716,49.6178385 859.750977,43.1230469 C857.007487,41.6673177 854.263997,40.9394531 851.520508,40.9394531 C843.513997,40.9394531 835.899414,46.7623698 828.676758,58.4082031 C827.668945,60.031901 825.793294,60.84375 823.049805,60.84375 C820.306315,60.84375 816.135091,59.3320312 810.536133,56.3085938 C800.010091,50.5976562 794.74707,44.0188802 794.74707,36.5722656 C794.74707,32.2610677 796.202799,28.0478516 799.114258,23.9326172 C802.025716,19.8173828 805.721029,17.7597656 810.200195,17.7597656 C814.679362,17.7597656 820.460286,19.6634115 827.542969,23.4707031 C834.625651,27.2779948 840.882487,29.1816406 846.313477,29.1816406 C857.791341,29.1816406 865.545898,21.0911458 869.577148,4.91015625 C869.745117,4.23828125 869.829102,3.65039062 869.829102,3.14648438 C869.829102,1.57877604 869.073242,0.794921875 867.561523,0.794921875 C866.385742,0.794921875 865.573893,1.66276042 865.125977,3.3984375 C864.006185,7.765625 861.318685,9.94921875 857.063477,9.94921875 C852.808268,9.94921875 847.699219,8.36751302 841.736328,5.20410156 C835.773438,2.0406901 830.356445,0.458984375 825.485352,0.458984375 C815.071289,0.458984375 805.315104,6.91178385 796.216797,19.8173828 C787.11849,32.7229818 782.569336,43.8929036 782.569336,53.3271484 C782.569336,62.7613932 787.524414,70.0540365 797.43457,75.2050781 C801.409831,77.2766927 805.189128,78.3125 808.772461,78.3125 C817.226888,78.3125 825.121419,72.6015625 832.456055,61.1796875 C833.463867,59.6119792 835.11556,58.828125 837.411133,58.828125 C839.706706,58.828125 842.814128,59.8639323 846.733398,61.9355469 C861.122721,69.5501302 868.317383,78.3125 868.317383,88.2226562 C868.317383,93.8776042 867.141602,98.608724 864.790039,102.416016 C861.262695,108.014974 855.579753,110.814453 847.741211,110.814453 C839.902669,110.814453 829.936523,106.167318 817.842773,96.8730469 C812.411784,92.7298177 807.232747,90.6582031 802.305664,90.6582031 C794.131185,90.6582031 786.432617,96.2851562 779.209961,107.539062 C778.706055,108.322917 778.454102,109.078776 778.454102,109.806641 C778.454102,111.26237 779.209961,111.990234 780.72168,111.990234 C781.617513,111.990234 782.457357,111.374349 783.241211,110.142578 C784.528971,108.182943 786.628581,107.203125 789.540039,107.203125 C792.451497,107.203125 796.902669,109.498698 802.893555,114.089844 C814.875326,123.216146 825.765299,127.779297 835.563477,127.779297 Z M935.042969,148.691406 C948.060547,148.691406 959.020508,144.744141 967.922852,136.849609 C980.24056,125.931641 986.399414,114.677734 986.399414,103.087891 C986.399414,94.1295573 982.886068,85.2272135 975.859375,76.3808594 C968.832682,67.5345052 965.319336,58.8561198 965.319336,50.3457031 C965.319336,41.8352865 971.590169,33.6888021 984.131836,25.90625 C985.251628,25.234375 985.811523,24.5065104 985.811523,23.7226562 C985.811523,22.1549479 985.083659,21.3710938 983.62793,21.3710938 C982.844076,21.3710938 982.116211,21.5950521 981.444336,22.0429688 C980.268555,22.8268229 978.784831,23.21875 976.993164,23.21875 C972.12207,23.21875 965.599284,19.4254557 957.424805,11.8388672 C949.250326,4.25227865 939.22819,0.458984375 927.358398,0.458984375 C915.488607,0.458984375 905.186523,4.44824219 896.452148,12.4267578 C887.717773,20.4052734 883.350586,29.9235026 883.350586,40.9814453 C883.350586,52.039388 886.374023,60.8577474 892.420898,67.4365234 C898.467773,74.0152995 905.984375,77.3046875 914.970703,77.3046875 C923.957031,77.3046875 930.997721,75.0651042 936.092773,70.5859375 C937.044596,69.7460938 937.520508,68.9622396 937.520508,68.234375 C937.520508,66.7226562 936.736654,65.9667969 935.168945,65.9667969 C934.441081,65.9667969 933.601237,66.3867188 932.649414,67.2265625 C929.17806,70.3059896 924.097005,71.8457031 917.40625,71.8457031 C910.715495,71.8457031 904.822591,69.1582031 899.727539,63.7832031 C894.632487,58.4082031 892.084961,51.7734375 892.084961,43.8789062 C892.084961,35.984375 894.856445,29.6155599 900.399414,24.7724609 C905.942383,19.929362 912.269206,17.5078125 919.379883,17.5078125 C926.49056,17.5078125 933.111328,20.391276 939.242188,26.1582031 C945.373047,31.9251302 951.825846,34.8085938 958.600586,34.8085938 C960.78418,34.8085938 961.875977,35.1585286 961.875977,35.8583984 C961.875977,36.5582682 961.344076,37.3841146 960.280273,38.3359375 C951.041992,46.6223958 946.422852,54.9508464 946.422852,63.3212891 C946.422852,71.6917318 949.110352,79.3203125 954.485352,86.2070312 C965.291341,100.036458 970.694336,111.26237 970.694336,119.884766 C970.694336,125.147786 968.902669,129.472982 965.319336,132.860352 C961.736003,136.247721 956.025065,137.941406 948.186523,137.941406 C940.347982,137.941406 932.215495,133.420247 923.789062,124.37793 C915.36263,115.335612 908.083984,110.814453 901.953125,110.814453 C895.822266,110.814453 888.557617,114.481771 880.15918,121.816406 C879.263346,122.60026 878.81543,123.30013 878.81543,123.916016 C878.81543,125.539714 879.627279,126.351563 881.250977,126.351563 C881.866862,126.351563 882.622721,125.959635 883.518555,125.175781 C884.414388,124.391927 885.47819,124 886.709961,124 C890.293294,124 895.990234,128.115234 903.800781,136.345703 C911.611328,144.576172 922.025391,148.691406 935.042969,148.691406 Z M1053.08301,127.779297 C1064.50488,127.779297 1074.41504,124.587891 1082.81348,118.205078 C1083.26139,117.869141 1083.68132,117.701172 1084.07324,117.701172 C1084.74512,117.701172 1085.33301,118.177083 1085.83691,119.128906 C1088.0765,123.496094 1092.13574,125.679688 1098.01465,125.679688 C1101.59798,125.679688 1104.90137,124.139974 1107.9248,121.060547 L1107.9248,121.060547 L1117.83496,110.982422 C1118.50684,110.310547 1118.84277,109.610677 1118.84277,108.882812 C1118.84277,107.427083 1118.11491,106.699219 1116.65918,106.699219 C1115.81934,106.699219 1115.00749,107.091146 1114.22363,107.875 C1111.87207,110.226562 1109.91243,111.402344 1108.34473,111.402344 C1103.86556,111.402344 1101.62598,107.147135 1101.62598,98.6367188 L1101.62598,98.6367188 L1101.62598,73.2734375 C1101.62598,66.7226562 1105.2653,60.2278646 1112.54395,53.7890625 C1113.49577,52.9492188 1113.97168,52.0813802 1113.97168,51.1855469 C1113.97168,49.8417969 1113.2998,49.1699219 1111.95605,49.1699219 C1111.1722,49.1699219 1110.38835,49.4778646 1109.60449,50.09375 C1099.41439,58.1002604 1089.42025,63.3632812 1079.62207,65.8828125 C1078.11035,66.2747396 1077.35449,67.2125651 1077.35449,68.6962891 C1077.35449,70.180013 1078.23633,70.921875 1080,70.921875 C1081.76367,70.921875 1082.64551,71.9296875 1082.64551,73.9453125 L1082.64551,73.9453125 L1082.64551,100.148438 C1082.64551,103.451823 1082.78548,106.307292 1083.06543,108.714844 C1083.12142,109.050781 1083.14941,109.358724 1083.14941,109.638672 C1083.14941,111.26237 1082.50553,112.522135 1081.21777,113.417969 C1075.73079,117.449219 1068.7321,119.464844 1060.22168,119.464844 C1043.31283,119.464844 1030.5472,107.091146 1021.9248,82.34375 C1019.57324,75.5690104 1018.39746,67.030599 1018.39746,56.7285156 C1018.39746,38.5878906 1021.07096,25.7102865 1026.41797,18.0957031 C1031.76497,10.4811198 1038.6377,6.67382812 1047.03613,6.67382812 C1052.85905,6.67382812 1057.14225,9.16536458 1059.88574,14.1484375 C1060.16569,14.6523438 1060.30566,15.1282552 1060.30566,15.5761719 C1060.30566,16.2480469 1059.85775,16.8359375 1058.96191,17.3398438 L1058.96191,17.3398438 L1057.70215,18.0117188 C1039.6735,27.6419271 1030.65918,38.0279948 1030.65918,49.1699219 C1030.65918,56.2246094 1034.34049,63.7272135 1041.70312,71.6777344 C1049.06576,79.6282552 1052.74707,86.4589844 1052.74707,92.1699219 C1052.74707,96.8730469 1050.17155,100.51237 1045.02051,103.087891 C1043.4528,103.871745 1042.66895,104.739583 1042.66895,105.691406 C1042.66895,107.203125 1043.36882,107.958984 1044.76855,107.958984 C1045.55241,107.958984 1046.42025,107.707031 1047.37207,107.203125 C1062.93717,99.0286458 1070.71973,90.0143229 1070.71973,80.1601562 C1070.71973,72.9375 1067.06641,65.406901 1059.75977,57.5683594 C1052.45312,49.7298177 1048.7998,42.8570964 1048.7998,36.9501953 C1048.7998,31.0432943 1052.66309,26.0182292 1060.38965,21.875 C1062.57324,20.6992188 1064.67285,20.1113281 1066.68848,20.1113281 C1070.3278,20.1113281 1073.68717,22.0569661 1076.7666,25.9482422 C1079.84603,29.8395182 1083.51335,31.7851562 1087.76855,31.7851562 C1093.70345,31.7851562 1100.78613,28.1178385 1109.0166,20.7832031 C1110.02441,19.8873698 1110.52832,19.0195312 1110.52832,18.1796875 C1110.52832,16.7799479 1109.82845,16.0800781 1108.42871,16.0800781 C1107.64486,16.0800781 1106.83301,16.4440104 1105.99316,17.171875 C1105.15332,17.8997396 1104.25749,18.2636719 1103.30566,18.2636719 C1100.9541,18.2636719 1098.01465,16.0380859 1094.4873,11.5869141 C1090.95996,7.13574219 1087.5446,4.91015625 1084.24121,4.91015625 C1083.00944,4.91015625 1081.74967,5.24609375 1080.46191,5.91796875 L1080.46191,5.91796875 L1067.19238,12.9726562 C1066.74447,13.1966146 1066.35254,13.3085938 1066.0166,13.3085938 C1065.23275,13.3085938 1064.58887,12.8606771 1064.08496,11.9648438 C1059.82975,4.29427083 1053.25098,0.458984375 1044.34863,0.458984375 C1031.41504,0.458984375 1020.20312,6.50585938 1010.71289,18.5996094 C1001.22266,30.6933594 996.477539,46.2584635 996.477539,65.2949219 C996.477539,73.9733073 997.541341,81.3919271 999.668945,87.5507812 C1008.90723,114.369792 1026.71191,127.779297 1053.08301,127.779297 Z M1222.89941,125.679688 C1224.24316,125.679688 1225.50293,125.231771 1226.67871,124.335938 L1226.67871,124.335938 L1244.39941,111.066406 C1245.46322,110.282552 1245.99512,109.414714 1245.99512,108.462891 C1245.99512,107.007161 1245.35124,106.279297 1244.06348,106.279297 C1243.3916,106.279297 1242.59375,106.615234 1241.66992,107.287109 C1240.74609,107.958984 1239.86426,108.294922 1239.02441,108.294922 C1236.67285,108.294922 1234.12533,106.167318 1231.38184,101.912109 C1227.57454,96.0332031 1225.6709,88.1106771 1225.6709,78.1445312 C1225.6709,60.1158854 1232.72559,46.9303385 1246.83496,38.5878906 C1248.06673,37.860026 1248.68262,37.0481771 1248.68262,36.1523438 C1248.68262,34.5846354 1248.01074,33.8007812 1246.66699,33.8007812 C1246.1071,33.8007812 1245.50521,33.9827474 1244.86133,34.3466797 C1244.21745,34.710612 1243.67155,34.8925781 1243.22363,34.8925781 C1240.64811,34.8925781 1238.32454,30.609375 1236.25293,22.0429688 C1232.78158,7.65364583 1223.90723,0.458984375 1209.62988,0.458984375 C1201.11947,0.458984375 1192.889,6.58984375 1184.93848,18.8515625 C1184.21061,19.9713542 1183.46875,20.53125 1182.71289,20.53125 C1181.95703,20.53125 1181.18717,19.9153646 1180.40332,18.6835938 C1172.28483,6.53385417 1161.39486,0.458984375 1147.7334,0.458984375 C1137.71126,0.458984375 1129.66276,3.55240885 1123.58789,9.73925781 C1117.51302,15.9261068 1114.47559,22.9807943 1114.47559,30.9033203 C1114.47559,38.8258464 1116.82715,45.1946615 1121.53027,50.0097656 C1126.28939,54.7688802 1131.87435,57.1484375 1138.28516,57.1484375 C1144.69596,57.1484375 1149.77702,55.6927083 1153.52832,52.78125 C1154.53613,51.9973958 1155.04004,51.2135417 1155.04004,50.4296875 C1155.04004,48.9179688 1154.28418,48.1621094 1152.77246,48.1621094 C1152.0446,48.1621094 1151.28874,48.4420573 1150.50488,49.0019531 C1147.92936,50.8496094 1144.45801,51.7734375 1140.09082,51.7734375 C1135.72363,51.7734375 1132.07031,50.1777344 1129.13086,46.9863281 C1126.19141,43.7949219 1124.72168,39.9876302 1124.72168,35.5644531 C1124.72168,31.141276 1126.26139,27.2639974 1129.34082,23.9326172 C1132.42025,20.601237 1136.64746,18.9355469 1142.02246,18.9355469 C1149.07715,18.9355469 1154.87207,22.1269531 1159.40723,28.5097656 C1165.79004,37.5800781 1168.98145,46.874349 1168.98145,56.3925781 C1168.98145,74.4772135 1157.9235,93.0097656 1135.80762,111.990234 C1135.02376,112.662109 1134.63184,113.389974 1134.63184,114.173828 C1134.63184,115.741536 1135.3877,116.525391 1136.89941,116.525391 C1137.57129,116.525391 1138.39714,116.091471 1139.37695,115.223633 C1140.35677,114.355794 1141.65853,113.921875 1143.28223,113.921875 C1145.96973,113.921875 1149.02116,115.573568 1152.43652,118.876953 C1157.08366,123.412109 1161.6748,125.679688 1166.20996,125.679688 C1173.43262,125.679688 1180.43132,120.360677 1187.20605,109.722656 C1187.59798,109.106771 1187.79395,108.462891 1187.79395,107.791016 C1187.79395,106.391276 1187.06608,105.691406 1185.61035,105.691406 C1184.71452,105.691406 1183.83268,106.349284 1182.96484,107.665039 C1182.09701,108.980794 1180.90723,109.638672 1179.39551,109.638672 C1176.93197,109.638672 1173.68457,107.679036 1169.65332,103.759766 C1166.79785,101.016276 1163.46647,99.6445312 1159.65918,99.6445312 C1157.97949,99.6445312 1157.13965,99.4205729 1157.13965,98.9726562 C1157.13965,98.5247396 1157.53158,97.8808594 1158.31543,97.0410156 C1177.7998,76.3808594 1187.54199,57.8483073 1187.54199,41.4433594 C1187.54199,38.8678385 1187.33203,36.5722656 1186.91211,34.5566406 C1186.49219,32.5410156 1186.28223,30.9453125 1186.28223,29.7695312 C1186.28223,26.9140625 1187.12207,24.1705729 1188.80176,21.5390625 C1192.16113,16.2760417 1196.66829,13.6445312 1202.32324,13.6445312 C1207.97819,13.6445312 1211.81348,17.8997396 1213.8291,26.4101562 C1216.18066,36.3203125 1220.54785,42.0032552 1226.93066,43.4589844 C1228.16243,43.7389323 1228.77832,44.1588542 1228.77832,44.71875 C1228.77832,45.2786458 1228.47038,45.8385417 1227.85449,46.3984375 C1213.80111,59.1640625 1206.77441,75.2890625 1206.77441,94.7734375 C1206.77441,106.363281 1210.77767,115.99349 1218.78418,123.664062 C1220.18392,125.007812 1221.55566,125.679688 1222.89941,125.679688 Z" id="MOMDESIGN" fill="#000000" fill-rule="nonzero"></path>
    </g>
</svg>