<svg xmlns="http://www.w3.org/2000/svg" width="21" height="20" viewBox="0 0 21 20">
    <defs>
        <filter id="mx71w1mlta" color-interpolation-filters="auto">
            <feColorMatrix in="SourceGraphic" values="0 0 0 0 0.000000 0 0 0 0 0.000000 0 0 0 0 0.000000 0 0 0 1.000000 0"/>
        </filter>
    </defs>
    <g fill="none" fill-rule="evenodd">
        <g filter="url(#mx71w1mlta)" transform="translate(-721.000000, -837.000000)">
            <g fill="#000" fill-rule="nonzero">
                <path d="M9.99 0c1.371 0 2.66.26 3.868.782 1.207.521 2.272 1.243 3.194 2.166.923.922 1.645 1.985 2.166 3.189C19.74 7.34 20 8.628 20 10c0 1.372-.26 2.66-.782 3.863-.521 1.204-1.241 2.265-2.16 3.184-.92.92-1.983 1.641-3.19 2.166-1.207.525-2.496.787-3.868.787-1.365 0-2.65-.262-3.858-.787-1.207-.525-2.27-1.247-3.19-2.166-.918-.919-1.64-1.98-2.165-3.184C.262 12.66 0 11.372 0 10c0-1.372.26-2.66.782-3.863.521-1.204 1.243-2.267 2.166-3.19.922-.922 1.987-1.644 3.194-2.165C7.349.26 8.632 0 9.99 0zm0 1.842c-1.125 0-2.18.21-3.164.632-.984.422-1.848 1.007-2.592 1.754-.745.748-1.326 1.616-1.744 2.603-.419.988-.628 2.044-.628 3.169 0 1.132.21 2.191.628 3.179.418.988 1 1.854 1.744 2.598.744.744 1.61 1.327 2.597 1.749.988.422 2.044.632 3.169.632 1.139 0 2.202-.21 3.19-.632.987-.422 1.851-1.005 2.592-1.75.74-.743 1.324-1.61 1.749-2.597.425-.988.634-2.047.627-3.179 0-1.125-.21-2.181-.632-3.169-.422-.987-1.007-1.855-1.754-2.603-.748-.747-1.614-1.332-2.598-1.754-.984-.422-2.046-.632-3.184-.632z" transform="translate(721.768665, 837.000000)"/>
                <path d="M10.854 14.136c.22 0 .405-.076.555-.227l3.293-3.271c.199-.199.298-.415.298-.648 0-.213-.1-.422-.298-.628L11.409 6.08c-.144-.144-.329-.216-.555-.216-.213 0-.391.074-.535.221-.144.148-.216.324-.216.53 0 .22.079.408.237.566l1.203 1.173 1.132.916-2.027-.083H5.751c-.233 0-.423.076-.571.227-.147.15-.221.343-.221.576 0 .233.074.427.221.581.148.154.338.231.571.231h4.897l2.027-.082-1.132.936-1.203 1.153c-.158.144-.237.332-.237.565 0 .213.072.393.216.54.144.148.322.222.535.222z" transform="translate(721.768665, 837.000000)"/>
            </g>
        </g>
    </g>
</svg>
